<svg width="222" height="189" viewBox="0 0 222 189" fill="none" xmlns="http://www.w3.org/2000/svg">
<path d="M220.614 130.28C214.577 99.8029 179.206 75.4449 172.308 43.6859C159.769 3.27979 118.442 -3.10849 91.5863 14.4398C49.0337 42.2454 94.4285 49.1456 10.9968 114.932C-9.60436 131.176 -3.0399 202.88 61.7702 186.424C96.648 177.568 107.251 176.326 122.939 174.868C162.482 171.192 230.749 181.439 220.614 130.28Z" fill="white" fill-opacity="0.05"/>
<path d="M173.375 137.918L112.258 170.232L51.2327 137.918V89.1216H173.375V137.918Z" fill="white"/>
<path d="M112.258 170.727C112.177 170.727 112.097 170.708 112.026 170.669L51.0027 138.356C50.9233 138.314 50.8569 138.251 50.8104 138.174C50.7639 138.097 50.7392 138.009 50.7389 137.92V89.1217C50.7389 88.9903 50.7911 88.8642 50.8839 88.7713C50.9767 88.6783 51.1027 88.6261 51.234 88.6261H173.375C173.506 88.6261 173.632 88.6783 173.725 88.7713C173.818 88.8642 173.87 88.9903 173.87 89.1217V137.918C173.87 138.008 173.845 138.096 173.799 138.173C173.752 138.249 173.686 138.312 173.606 138.354L112.489 170.668C112.418 170.707 112.338 170.727 112.258 170.727ZM51.7275 137.62L112.258 169.671L172.88 137.619V89.6173H51.7275V137.62Z" fill="#262626"/>
<path d="M173.374 78.6506L112.256 46.3369L139.72 33.0849L200.838 65.399L173.374 78.6506Z" fill="white"/>
<path d="M173.374 79.1461C173.293 79.1461 173.214 79.1265 173.143 79.089L112.025 46.7749C111.944 46.732 111.877 46.6675 111.83 46.5885C111.784 46.5095 111.76 46.4192 111.762 46.3275C111.763 46.2358 111.79 46.1463 111.84 46.0691C111.889 45.9919 111.959 45.9299 112.041 45.89L139.505 32.638C139.575 32.6041 139.652 32.5872 139.73 32.5887C139.807 32.5901 139.883 32.6099 139.952 32.6464L201.069 64.9604C201.15 65.0033 201.218 65.0678 201.264 65.1467C201.311 65.2257 201.335 65.316 201.333 65.4077C201.331 65.4994 201.304 65.5888 201.255 65.666C201.205 65.7432 201.135 65.8052 201.053 65.845L173.589 79.097C173.522 79.1294 173.449 79.1462 173.374 79.1461ZM113.355 46.3563L173.384 78.0946L199.74 65.3779L139.71 33.6404L113.355 46.3563Z" fill="#AEBBFD"/>
<path d="M51.2327 78.6506L112.35 46.3369L84.8863 33.0849L23.7688 65.399L51.2327 78.6506Z" fill="white"/>
<path d="M51.2328 79.1461C51.1584 79.1461 51.0849 79.1293 51.0178 79.097L23.5555 65.845C23.473 65.8052 23.4032 65.7432 23.3537 65.666C23.3043 65.5888 23.2773 65.4994 23.2756 65.4077C23.2739 65.316 23.2977 65.2257 23.3442 65.1467C23.3908 65.0678 23.4583 65.0033 23.5393 64.9604L84.6568 32.6464C84.7253 32.6099 84.8014 32.5901 84.879 32.5887C84.9565 32.5872 85.0333 32.6041 85.1031 32.638L112.567 45.89C112.649 45.9299 112.719 45.9919 112.769 46.0691C112.818 46.1463 112.845 46.2358 112.847 46.3275C112.848 46.4192 112.825 46.5095 112.778 46.5885C112.732 46.6675 112.664 46.732 112.583 46.7749L51.4657 79.089C51.3939 79.1268 51.314 79.1465 51.2328 79.1461ZM24.8673 65.3787L51.2225 78.0954L111.252 46.357L84.8968 33.6404L24.8673 65.3787Z" fill="#AEBBFD"/>
<path d="M51.2327 78.6505L112.35 110.965L80.9256 128.181L19.8081 95.8673L51.2327 78.6505Z" fill="white"/>
<path d="M80.9254 128.677C80.8448 128.677 80.7653 128.657 80.6941 128.619L19.5766 96.3052C19.4977 96.2633 19.4316 96.2009 19.3853 96.1244C19.3389 96.048 19.3141 95.9604 19.3135 95.871C19.3128 95.7816 19.3364 95.6937 19.3816 95.6165C19.4268 95.5394 19.492 95.476 19.5703 95.433L50.9948 78.2161C51.0666 78.1767 51.147 78.1557 51.2289 78.1552C51.3108 78.1546 51.3915 78.1745 51.4638 78.2129L112.581 110.527C112.66 110.569 112.726 110.631 112.773 110.708C112.819 110.784 112.844 110.872 112.844 110.961C112.845 111.051 112.822 111.139 112.776 111.216C112.731 111.293 112.666 111.356 112.588 111.399L81.1631 128.616C81.0902 128.656 81.0085 128.677 80.9254 128.677ZM20.8535 95.8596L80.9211 127.619L111.305 110.972L51.2368 79.2133L20.8535 95.8596Z" fill="#AEBBFD"/>
<path d="M173.373 78.6505L112.256 110.965L143.68 128.181L204.798 95.8673L173.373 78.6505Z" fill="white"/>
<path d="M143.682 128.677C143.599 128.677 143.517 128.656 143.444 128.616L112.019 111.399C111.941 111.356 111.876 111.293 111.831 111.216C111.786 111.139 111.762 111.051 111.763 110.961C111.763 110.872 111.788 110.784 111.834 110.708C111.881 110.631 111.947 110.569 112.026 110.527L173.143 78.2129C173.216 78.1745 173.296 78.1546 173.378 78.1552C173.46 78.1557 173.54 78.1767 173.612 78.2161L205.037 95.433C205.115 95.476 205.18 95.5394 205.226 95.6165C205.271 95.6937 205.294 95.7816 205.294 95.871C205.293 95.9604 205.268 96.048 205.222 96.1244C205.176 96.2009 205.109 96.2633 205.03 96.3052L143.913 128.619C143.842 128.657 143.762 128.677 143.682 128.677ZM113.303 110.972L143.686 127.619L203.754 95.8596L173.371 79.2133L113.303 110.972Z" fill="#AEBBFD"/>
<path d="M112.35 46.3371L51.2325 78.6508L112.258 110.965L173.375 78.6508L112.35 46.3371Z" fill="#262626"/>
<path d="M112.752 110.964H111.762V170.231H112.752V110.964Z" fill="#AEBBFD"/>
<path d="M66.1752 60.3898C66.0932 60.3898 66.0133 60.3642 65.9467 60.3164C65.861 60.2556 65.8029 60.1632 65.7852 60.0596C65.7675 59.9559 65.7917 59.8495 65.8524 59.7637C65.9257 59.6602 73.0838 49.3007 65.0927 39.8562C63.6784 38.1759 61.9141 36.8256 59.9234 35.8999C57.9328 34.9742 55.764 34.4954 53.5691 34.4973H53.4614C54.2202 37.1363 54.0848 39.4827 53.0103 41.2828C52.5524 42.0962 51.8767 42.7655 51.0594 43.2152C50.2421 43.665 49.3155 43.8773 48.3842 43.8283C47.6132 43.7651 46.8774 43.4782 46.2668 43.0027C45.6562 42.5272 45.1975 41.8837 44.9467 41.1512C44.0678 38.8563 44.9863 36.6312 47.4071 35.1971C48.9406 34.3505 50.6447 33.8598 52.3932 33.7614C51.8244 32.2517 51.0847 30.8121 50.1886 29.4709C47.3033 25.0596 42.0447 22.0058 35.7606 21.0927C30.4351 20.3191 25.3313 21.2302 22.7565 23.4133C22.6763 23.4813 22.5724 23.5145 22.4677 23.5058C22.363 23.497 22.2661 23.447 22.1982 23.3667C22.1304 23.2864 22.0971 23.1825 22.1059 23.0777C22.1146 22.9729 22.1646 22.8758 22.2448 22.8079C24.9848 20.4848 30.3345 19.5027 35.8743 20.31C42.3829 21.256 47.8415 24.4371 50.8517 29.0384C51.8276 30.4976 52.6214 32.071 53.2154 33.7233C55.5832 33.6664 57.9336 34.1419 60.0934 35.115C62.2533 36.088 64.1675 37.5337 65.6952 39.3456C74.0891 49.2654 66.5733 60.1158 66.4964 60.2244C66.4598 60.2755 66.4116 60.3171 66.3557 60.3459C66.2999 60.3746 66.238 60.3897 66.1752 60.3898ZM52.6502 34.5262C50.955 34.5986 49.2993 35.0618 47.8122 35.8798C45.7226 37.1177 44.9486 38.936 45.6881 40.8677C45.8885 41.4596 46.2568 41.9802 46.7481 42.3658C47.2394 42.7514 47.8323 42.9853 48.4543 43.0389C49.2374 43.074 50.0149 42.8903 50.6997 42.5084C51.3846 42.1265 51.9498 41.5615 52.3322 40.8764C53.3184 39.223 53.4087 37.0253 52.649 34.5262H52.6502Z" fill="white"/>
<path d="M15.9206 29.8059C15.2476 30.0083 14.5222 29.9397 13.8989 29.6147C13.2756 29.2897 12.8036 28.734 12.5835 28.0658C12.3635 27.3977 12.4126 26.67 12.7205 26.0375C13.0284 25.4051 13.5707 24.918 14.232 24.6799C14.8933 24.4418 15.6214 24.4716 16.2611 24.7628C16.9008 25.054 17.4017 25.5838 17.6571 26.2392C17.9126 26.8946 17.9023 27.6239 17.6286 28.2719C17.3548 28.9199 16.8392 29.4353 16.1916 29.7084C16.1031 29.7458 16.0127 29.7784 15.9206 29.8059ZM14.6037 25.4001C14.5396 25.4194 14.4765 25.4422 14.4148 25.4683C13.9591 25.6606 13.5964 26.0235 13.404 26.4796C13.2115 26.9357 13.2046 27.4489 13.3846 27.9101C13.5646 28.3712 13.9174 28.7438 14.3677 28.9484C14.8181 29.153 15.3304 29.1736 15.7957 29.0056C16.2609 28.8377 16.6423 28.4945 16.8586 28.0493C17.0748 27.604 17.1089 27.0918 16.9535 26.6218C16.7981 26.1518 16.4655 25.7611 16.0266 25.5329C15.5877 25.3047 15.0772 25.257 14.6037 25.4001Z" fill="white"/>
<path d="M15.9161 23.5928C15.2795 23.7831 14.595 23.731 13.9943 23.4467C13.3936 23.1624 12.9191 22.6658 12.662 22.0524C12.4559 21.5606 12.4001 21.0188 12.5017 20.4953C12.6032 19.9718 12.8575 19.4902 13.2325 19.1114C13.6075 18.7326 14.0862 18.4737 14.6082 18.3673C15.1302 18.2609 15.672 18.3119 16.1651 18.5137C16.6581 18.7156 17.0803 19.0593 17.3783 19.5014C17.6762 19.9435 17.8364 20.4641 17.8388 20.9973C17.8411 21.5306 17.6855 22.0526 17.3915 22.4973C17.0975 22.942 16.6783 23.2894 16.187 23.4956C16.0985 23.5327 16.0081 23.5651 15.9161 23.5928ZM14.6008 19.1865C14.5359 19.206 14.472 19.2289 14.4095 19.2551C13.9448 19.4505 13.5767 19.8226 13.386 20.2896C13.1953 20.7565 13.1976 21.2802 13.3924 21.7455C13.5345 22.0847 13.7717 22.3754 14.0753 22.5824C14.379 22.7895 14.736 22.904 15.1033 22.9122C15.4706 22.9204 15.8325 22.8218 16.145 22.6285C16.4575 22.4351 16.7074 22.1553 16.8644 21.8228C17.0214 21.4902 17.0788 21.1193 17.0296 20.7548C16.9805 20.3904 16.8269 20.0479 16.5874 19.769C16.3479 19.4901 16.0329 19.2866 15.6803 19.1832C15.3277 19.0797 14.9528 19.0808 14.6008 19.1861V19.1865Z" fill="white"/>
<path d="M15.1472 26.3967C17.0923 26.3967 18.6691 25.3425 18.6691 24.042C18.6691 22.7415 17.0923 21.6872 15.1472 21.6872C13.2022 21.6872 11.6254 22.7415 11.6254 24.042C11.6254 25.3425 13.2022 26.3967 15.1472 26.3967Z" fill="white"/>
<path d="M16.7057 26.5701C16.2008 26.7194 15.6769 26.7948 15.1503 26.7937C12.9529 26.7937 11.2292 25.5883 11.2292 24.0456C11.2292 22.5028 12.9478 21.2931 15.1444 21.2908C16.1021 21.2724 17.0443 21.5342 17.8555 22.0441C18.2198 22.2341 18.5252 22.5204 18.7384 22.8719C18.9516 23.2234 19.0645 23.6267 19.0649 24.038C19.0653 24.4492 18.9531 24.8527 18.7405 25.2046C18.5279 25.5565 18.223 25.8433 17.8591 26.034C17.5032 26.2688 17.1145 26.4495 16.7057 26.5701ZM13.8294 22.2725C12.7711 22.5897 12.021 23.2744 12.0214 24.0436C12.0214 25.105 13.454 26.0007 15.1503 25.9991C15.9517 26.016 16.7405 25.7989 17.4206 25.3742C17.6757 25.2566 17.8917 25.0683 18.043 24.8315C18.1943 24.5947 18.2746 24.3194 18.2744 24.0383C18.2741 23.7572 18.1933 23.482 18.0416 23.2455C17.8898 23.009 17.6735 22.821 17.4182 22.7039C16.7377 22.2801 15.9484 22.0643 15.1472 22.083C14.7011 22.0818 14.2572 22.1456 13.8294 22.2725Z" fill="white"/>
<path d="M16.0114 26.3248L15.9282 21.7453L14.7907 21.6993L14.7111 26.3783L16.0114 26.3248Z" fill="white"/>
<path d="M10.4749 25.0386C10.6757 25.0386 10.8385 24.8757 10.8385 24.6747C10.8385 24.4736 10.6757 24.3107 10.4749 24.3107C10.2741 24.3107 10.1113 24.4736 10.1113 24.6747C10.1113 24.8757 10.2741 25.0386 10.4749 25.0386Z" fill="white"/>
<path d="M10.7586 23.0908C10.9594 23.0908 11.1222 22.9278 11.1222 22.7268C11.1222 22.5258 10.9594 22.3628 10.7586 22.3628C10.5578 22.3628 10.395 22.5258 10.395 22.7268C10.395 22.9278 10.5578 23.0908 10.7586 23.0908Z" fill="white"/>
<path d="M140.247 52.8513C140.162 52.8513 140.08 52.824 140.012 52.7736C139.944 52.7231 139.893 52.6521 139.869 52.5709C138.555 47.6599 138.204 42.5405 138.836 37.4959C139.86 30.1212 143.923 20.4424 157.464 16.2043C159.369 15.5911 161.323 15.1426 163.305 14.8638C163.943 10.8747 166.37 6.54737 171.798 3.56179C184.695 -3.53224 193.406 2.83264 193.493 2.89766C193.577 2.96076 193.632 3.05469 193.647 3.15878C193.662 3.26288 193.635 3.36863 193.572 3.45275C193.509 3.53688 193.415 3.59249 193.311 3.60736C193.207 3.62224 193.102 3.59514 193.017 3.53205C192.935 3.4702 184.61 -2.58066 172.18 4.25723C167.108 7.04735 164.786 11.0519 164.126 14.7694C170.098 14.1806 172.958 16.175 174.242 17.6813C175.036 18.5871 175.546 19.7068 175.709 20.9009C175.872 22.095 175.681 23.3108 175.158 24.3966C174.746 25.2743 174.076 26.006 173.24 26.4951C172.403 26.9842 171.437 27.2076 170.471 27.136C167.136 26.9401 164.375 24.1314 163.44 19.9801C163.131 18.5749 163.049 17.1292 163.197 15.698C161.333 15.9661 159.494 16.3893 157.7 16.9632C147.147 20.2664 141.065 27.2125 139.621 37.6073C139.002 42.5374 139.343 47.5409 140.626 52.341C140.644 52.4003 140.648 52.463 140.638 52.5241C140.627 52.5852 140.602 52.643 140.566 52.6929C140.529 52.7427 140.481 52.7832 140.425 52.8112C140.37 52.8391 140.309 52.8536 140.247 52.8536V52.8513ZM164.004 15.5989C163.839 17.0028 163.91 18.4245 164.213 19.8053C165.068 23.6029 167.543 26.1694 170.517 26.3442C171.328 26.4023 172.137 26.2139 172.839 25.8035C173.54 25.3931 174.102 24.78 174.449 24.0446C174.902 23.0977 175.067 22.0383 174.922 20.9985C174.778 19.9586 174.332 18.9843 173.638 18.1967C171.786 16.0211 168.407 15.1425 164.004 15.5989Z" fill="white"/>
<path d="M202.717 6.90471C202.184 6.90359 201.662 6.75148 201.211 6.46595C200.76 6.18042 200.399 5.77309 200.17 5.29099C199.94 4.80888 199.852 4.27165 199.914 3.7413C199.976 3.21095 200.188 2.70909 200.523 2.29365C200.858 1.87821 201.304 1.56613 201.808 1.39341C202.313 1.2207 202.856 1.1944 203.376 1.31755C203.895 1.44069 204.368 1.70827 204.742 2.08939C205.116 2.47051 205.374 2.94964 205.487 3.47149C205.576 3.88516 205.571 4.31346 205.473 4.72505C205.376 5.13663 205.187 5.52107 204.921 5.85022C204.656 6.17937 204.32 6.44489 203.939 6.62735C203.557 6.8098 203.14 6.90457 202.717 6.90471ZM202.723 2.0342C202.302 2.03419 201.891 2.16498 201.547 2.40855C201.203 2.65211 200.943 2.99646 200.803 3.39413C200.663 3.79181 200.649 4.22322 200.764 4.62893C200.879 5.03463 201.117 5.39464 201.445 5.65935C201.773 5.92406 202.175 6.08043 202.595 6.10691C203.016 6.13339 203.434 6.02868 203.793 5.8072C204.151 5.58572 204.432 5.25839 204.597 4.87031C204.762 4.48223 204.802 4.05252 204.713 3.64039C204.617 3.18442 204.366 2.7757 204.003 2.48313C203.641 2.19055 203.189 2.032 202.723 2.0342Z" fill="white"/>
<path d="M201.525 13.3757C200.799 13.3757 200.101 13.097 199.574 12.5971C199.047 12.0972 198.732 11.4141 198.693 10.6885C198.654 9.96283 198.894 9.24984 199.365 8.69628C199.835 8.14271 200.499 7.79072 201.221 7.71275C201.943 7.63478 202.667 7.83678 203.244 8.27715C203.822 8.71752 204.209 9.36275 204.325 10.08C204.442 10.7973 204.279 11.532 203.871 12.1329C203.463 12.7338 202.84 13.1552 202.131 13.3103C201.932 13.3538 201.729 13.3757 201.525 13.3757ZM201.535 8.50481C201.389 8.50487 201.243 8.52069 201.1 8.55199C200.594 8.66322 200.149 8.96434 199.859 9.39339C199.568 9.82244 199.452 10.3468 199.536 10.8585C199.619 11.3703 199.895 11.8305 200.308 12.1446C200.72 12.4586 201.237 12.6026 201.752 12.5468C202.267 12.491 202.741 12.2398 203.076 11.8448C203.412 11.4497 203.583 10.941 203.556 10.4232C203.528 9.90539 203.303 9.41792 202.927 9.06107C202.551 8.70423 202.053 8.50515 201.535 8.50481Z" fill="white"/>
<path d="M205.779 8.06302C206.028 6.70874 204.589 5.30755 202.563 4.9334C200.538 4.55924 198.693 5.3538 198.444 6.70808C198.194 8.06236 199.634 9.46353 201.659 9.83769C203.685 10.2118 205.529 9.41729 205.779 8.06302Z" fill="white"/>
<path d="M202.657 10.3275C202.298 10.3269 201.94 10.2937 201.588 10.2284C200.592 10.0629 199.665 9.61013 198.923 8.92549C198.597 8.64779 198.347 8.29252 198.196 7.89251C198.044 7.49251 197.996 7.06067 198.055 6.63694C198.151 6.21999 198.35 5.83396 198.634 5.5145C198.919 5.19503 199.279 4.95243 199.681 4.80911C200.624 4.45289 201.645 4.36131 202.635 4.54427C203.626 4.72722 204.547 5.17775 205.3 5.84713C205.626 6.12482 205.876 6.48009 206.027 6.8801C206.179 7.28011 206.227 7.71194 206.168 8.13568C206.072 8.55262 205.873 8.93865 205.589 9.25812C205.304 9.57758 204.944 9.82018 204.542 9.9635C203.944 10.2109 203.303 10.3347 202.657 10.3275ZM201.563 5.23732C201.025 5.23047 200.492 5.33257 199.994 5.53747C199.713 5.63177 199.459 5.79486 199.257 6.01197C199.054 6.22908 198.909 6.49335 198.834 6.78086C198.801 7.07619 198.843 7.37498 198.955 7.65017C199.067 7.92537 199.245 8.16828 199.475 8.35692C200.115 8.91668 200.895 9.29359 201.731 9.4481C202.567 9.60262 203.429 9.52907 204.227 9.23515C204.509 9.14084 204.762 8.97775 204.965 8.76064C205.168 8.54353 205.313 8.27926 205.388 7.99175C205.421 7.6964 205.379 7.39755 205.267 7.12232C205.155 6.84709 204.977 6.6042 204.747 6.4157C204.117 5.8399 203.332 5.46058 202.49 5.32415C202.185 5.26728 201.875 5.23822 201.565 5.23732H201.563Z" fill="white"/>
<path d="M201.655 4.84238L200.858 9.62645L202.033 9.89447L203.019 5.03785L201.655 4.84238Z" fill="white"/>
<path d="M206.428 9.98918C206.641 9.98918 206.813 9.81663 206.813 9.60379C206.813 9.39094 206.641 9.2184 206.428 9.2184C206.215 9.2184 206.043 9.39094 206.043 9.60379C206.043 9.81663 206.215 9.98918 206.428 9.98918Z" fill="white"/>
<path d="M207.099 8.01605C207.312 8.01605 207.484 7.8435 207.484 7.63066C207.484 7.41781 207.312 7.24527 207.099 7.24527C206.886 7.24527 206.714 7.41781 206.714 7.63066C206.714 7.8435 206.886 8.01605 207.099 8.01605Z" fill="white"/>
</svg>
