<svg width="382" height="230" viewBox="0 0 382 230" fill="none" xmlns="http://www.w3.org/2000/svg">
<g clip-path="url(#clip0_1_2601)">
<rect x="0.025177" y="229.316" width="228.898" height="381.496" rx="16.9554" transform="rotate(-90 0.025177 229.316)" fill="#B2EDD3"/>
<path d="M4.04431 106.949C43.3811 107.975 80.7837 111.285 118.985 107.346C167.115 102.675 215.482 102.58 263.613 103.589C283.855 103.854 304.119 98.8752 324.597 98.0358C327.813 97.8697 330.759 98.1544 334.864 98.1608C333.402 103.916 328.432 104.173 323.754 104.414C278.794 108.047 233.666 108.412 188.752 107.237C162.325 106.418 136.123 109.956 109.853 112.187C79.2095 114.862 49.2402 113.57 19.2259 111.407C8.03659 110.456 -3.36632 111.045 -14.6454 114.03C-15.7589 109.501 -16.8499 105.407 -18.267 100.674C16.1891 98.0204 49.1043 88.2378 84.7189 90.9854C112.979 93.2391 141.081 86.7633 168.351 81.2043C209.847 72.9444 251.444 72.3248 292.816 78.707C304.635 80.4993 317.242 80.5035 329.432 78.1262C328.633 85.3761 327.779 85.8571 317.512 85.7321C299.305 85.1435 281.324 83.2326 263.871 80.2022C236.667 75.7094 209.577 79.0747 182.521 83.0937C163.898 85.8032 145.613 89.369 127.373 93.8063C104.792 99.3415 82.0877 96.8008 59.7428 95.5522C44.1678 94.8276 29.4251 98.8658 13.9738 100.538C14.0076 101.191 14.0526 102.063 14.0864 102.716C24.9045 102.158 35.7002 101.163 46.5408 101.04C97.2692 101.259 147.773 97.1214 197.477 88.8743C218.113 85.4056 238.265 89.6072 258.541 90.5258C280.582 91.5717 302.848 91.2953 324.754 89.7269C329.14 89.5003 333.199 88.6353 336.033 92.4209C332.39 95.6673 327.374 95.0526 322.719 95.73C298.237 98.5236 274.105 96.712 249.938 94.2469C226.356 91.7515 203.022 94.049 179.429 97.0153C154.374 100.057 128.622 100.95 103.252 103.572C71.1574 106.54 38.3879 102.116 4.04431 106.949Z" fill="#0D1218"/>
<path d="M-10.7281 69.9487C1.51902 64.2725 15.7912 63.9233 28.78 61.3125C43.7948 58.4031 59.5012 57.5918 74.9668 57.7628C94.8153 58.0954 113.191 52.4906 131.656 48.6271C179.268 38.7963 227.26 36.3173 275.843 39.6272C286.383 40.4406 296.404 36.8193 308.118 37.766C302.601 43.8705 294.797 45.2435 286.322 44.9053C255.031 43.224 223.257 43.5074 191.784 43.9693C176.92 44.1551 162.507 47.4214 148.084 50.4942C121.835 56.1177 96.1986 62.2916 67.6243 62.4097C43.7138 62.4809 19.3714 65.4842 -3.9784 70.7639C-5.97444 71.643 -7.9605 72.7155 -10.7281 69.9487Z" fill="#0D1218"/>
<path d="M329.272 71.9421C316.31 76.0767 306.276 74.5567 297.108 72.7883C233.827 60.7704 171.793 67.2359 110.274 83.6622C102.473 85.6957 94.9542 87.5108 86.641 85.2906C64.9766 79.6835 44.7973 85.8214 24.263 90.7548C21.0822 91.5305 17.8804 91.8998 15.0126 93.067C3.23909 97.5478 -7.51535 93.4154 -18.7593 91.1427C-18.0723 87.4384 -13.9734 87.4305 -10.9901 88.4993C5.12577 94.393 20.0276 88.12 34.7739 84.5048C52.1379 80.5505 68.3654 77.2664 86.1389 81.2401C97.1014 83.7311 107.425 79.529 117.239 76.7801C138.326 71.2067 159.475 66.8531 181.659 65.5034C215.231 63.5653 248.793 61.424 282.336 64.5831C297.053 66.0649 311.77 67.5468 329.272 71.9421Z" fill="#0D1218"/>
<path d="M315.32 50.9907C317.007 55.2867 313.187 55.0666 310.319 56.2583C293.122 63.617 275.918 59.4964 259.395 57.2191C215.431 51.1412 172.525 54.1924 130.373 66.1797C110.168 72.0239 89.4562 73.72 68.0093 72.5319C60.3698 72.0916 53.044 72.0526 46.1502 74.7047C29.4837 80.9923 11.0339 81.1105 -7.02708 83.087C-8.76936 83.3857 -10.8468 82.8669 -13.4979 82.5864C-9.34111 77.9885 -3.19473 77.8797 2.07512 77.8163C15.2551 77.7616 28.0355 75.6404 40.1562 72.0922C51.1297 69.0207 61.6479 68.4774 72.8042 68.9447C86.0165 69.5145 98.8183 67.8096 111.253 64.6627C143.643 56.5192 176.789 51.6762 210.638 49.0928C231.945 47.5748 252.72 52.7633 274.177 54.1595C287.703 55.1306 301.468 55.0458 315.32 50.9907Z" fill="#0D1218"/>
<path d="M331.048 106.298C330.693 110.749 327.474 110.705 323.683 110.9C286.904 112.167 250.289 116.591 213.652 120.595C169.757 125.606 125.267 130.438 81.3027 122.787C53.8654 118.083 26.182 119.935 -1.64089 124.75C-5.41038 125.367 -9.428 126.841 -12.551 122.991C8.01366 119.185 28.2866 115.394 49.3821 116.204C69.3002 116.864 88.4631 119.884 107.863 121.838C137.849 124.933 167.422 120.028 197.125 117.649C241.69 114.291 285.466 106.964 331.048 106.298Z" fill="#0D1218"/>
<g clip-path="url(#clip1_1_2601)">
<rect width="228.898" height="108.091" transform="matrix(0 -1 1 0 273.43 229.316)" fill="#0D1218"/>
<path d="M317.493 37.519L317.472 37.5402C317.186 36.915 317.006 36.205 316.932 35.4208C317.006 36.1944 317.207 36.8938 317.493 37.519Z" fill="white"/>
</g>
<path d="M25.17 186.151V179.106L23.7076 179.45V178.204L25.8567 177.25H26.8613V186.151H25.17ZM28.3711 186.151V184.969C28.9137 184.519 29.4393 184.074 29.948 183.634C30.4651 183.193 30.9229 182.756 31.3214 182.324C31.7283 181.891 32.0505 181.472 32.2878 181.065C32.5337 180.649 32.6566 180.247 32.6566 179.857C32.6566 179.492 32.5549 179.17 32.3514 178.89C32.1564 178.61 31.83 178.471 31.3722 178.471C30.906 178.471 30.5541 178.623 30.3168 178.928C30.0794 179.234 29.9607 179.602 29.9607 180.035H28.3839C28.4008 179.382 28.5449 178.839 28.8162 178.407C29.0875 177.966 29.4478 177.64 29.8971 177.428C30.3464 177.207 30.8509 177.097 31.4104 177.097C32.3175 177.097 33.0212 177.347 33.5213 177.847C34.03 178.339 34.2843 178.979 34.2843 179.768C34.2843 180.259 34.1699 180.738 33.941 181.205C33.7206 181.671 33.4281 182.12 33.0635 182.553C32.699 182.985 32.3048 183.392 31.8809 183.773C31.457 184.146 31.0459 184.494 30.6474 184.816H34.5005V186.151H28.3711ZM38.7642 186.304C38.1793 186.304 37.6494 186.202 37.1747 185.999C36.6999 185.787 36.3184 185.465 36.0302 185.032C35.7419 184.6 35.5893 184.057 35.5724 183.405H37.1747C37.1831 183.837 37.323 184.202 37.5943 184.498C37.8741 184.786 38.264 184.931 38.7642 184.931C39.239 184.931 39.6035 184.799 39.8578 184.536C40.1122 184.274 40.2393 183.943 40.2393 183.545C40.2393 183.078 40.0698 182.726 39.7307 182.489C39.4001 182.243 38.9719 182.12 38.4463 182.12H37.7851V180.785H38.459C38.8914 180.785 39.2517 180.683 39.5399 180.48C39.8282 180.276 39.9723 179.975 39.9723 179.577C39.9723 179.246 39.8621 178.984 39.6417 178.789C39.4297 178.585 39.133 178.483 38.7515 178.483C38.3361 178.483 38.0097 178.606 37.7723 178.852C37.5434 179.098 37.4163 179.399 37.3908 179.755H35.8013C35.8352 178.933 36.1192 178.284 36.6533 177.809C37.1959 177.335 37.8953 177.097 38.7515 177.097C39.3619 177.097 39.8748 177.207 40.2902 177.428C40.7141 177.64 41.032 177.924 41.244 178.28C41.4644 178.636 41.5746 179.03 41.5746 179.462C41.5746 179.963 41.4347 180.387 41.1549 180.734C40.8836 181.073 40.5445 181.302 40.1376 181.421C40.6378 181.523 41.0447 181.768 41.3584 182.158C41.6721 182.54 41.8289 183.023 41.8289 183.608C41.8289 184.1 41.7102 184.549 41.4728 184.956C41.2355 185.363 40.8879 185.689 40.4301 185.935C39.9808 186.181 39.4255 186.304 38.7642 186.304ZM47.4967 186.151V184.498H43.1095V183.201L47.2805 177.25H49.1244V183.087H50.2943V184.498H49.1244V186.151H47.4967ZM44.8517 183.087H47.5984V179.043L44.8517 183.087ZM54.426 183.15V181.79H59.7543V183.15H54.426ZM67.9898 186.304C67.1675 186.304 66.4638 186.113 65.8789 185.732C65.2939 185.342 64.8403 184.803 64.5182 184.117C64.2045 183.422 64.0477 182.616 64.0477 181.701C64.0477 180.793 64.2045 179.992 64.5182 179.297C64.8403 178.602 65.2939 178.064 65.8789 177.682C66.4638 177.292 67.1675 177.097 67.9898 177.097C68.8121 177.097 69.5158 177.292 70.1008 177.682C70.6857 178.064 71.135 178.602 71.4487 179.297C71.7709 179.992 71.9319 180.793 71.9319 181.701C71.9319 182.616 71.7709 183.422 71.4487 184.117C71.135 184.803 70.6857 185.342 70.1008 185.732C69.5158 186.113 68.8121 186.304 67.9898 186.304ZM67.9898 184.842C68.6595 184.842 69.2064 184.562 69.6302 184.002C70.0541 183.443 70.2661 182.676 70.2661 181.701C70.2661 180.726 70.0541 179.958 69.6302 179.399C69.2064 178.839 68.6595 178.56 67.9898 178.56C67.3116 178.56 66.7605 178.839 66.3367 179.399C65.9213 179.958 65.7135 180.726 65.7135 181.701C65.7135 182.676 65.9213 183.443 66.3367 184.002C66.7605 184.562 67.3116 184.842 67.9898 184.842ZM76.5094 186.304C75.899 186.304 75.348 186.198 74.8562 185.986C74.3645 185.766 73.9703 185.456 73.6736 185.058C73.3854 184.659 73.2412 184.197 73.2412 183.672C73.2412 183.129 73.3811 182.654 73.6609 182.247C73.9491 181.84 74.3264 181.548 74.7927 181.37C74.3857 181.192 74.0636 180.938 73.8262 180.607C73.5888 180.268 73.4701 179.891 73.4701 179.475C73.4701 179.051 73.5846 178.661 73.8135 178.305C74.0424 177.941 74.3815 177.648 74.8308 177.428C75.2886 177.207 75.8481 177.097 76.5094 177.097C77.1707 177.097 77.7259 177.207 78.1753 177.428C78.6246 177.648 78.9637 177.941 79.1926 178.305C79.4215 178.661 79.5359 179.051 79.5359 179.475C79.5359 179.882 79.413 180.259 79.1672 180.607C78.9298 180.946 78.6119 181.2 78.2134 181.37C78.6882 181.548 79.0654 181.84 79.3452 182.247C79.6249 182.654 79.7648 183.129 79.7648 183.672C79.7648 184.197 79.6207 184.659 79.3325 185.058C79.0442 185.456 78.65 185.766 78.1498 185.986C77.6581 186.198 77.1113 186.304 76.5094 186.304ZM76.5094 180.887C76.9502 180.887 77.2978 180.772 77.5522 180.543C77.8065 180.315 77.9336 180.022 77.9336 179.666C77.9336 179.276 77.8065 178.971 77.5522 178.75C77.3063 178.53 76.9587 178.42 76.5094 178.42C76.0516 178.42 75.6998 178.53 75.4539 178.75C75.2081 178.971 75.0851 179.276 75.0851 179.666C75.0851 180.031 75.2081 180.327 75.4539 180.556C75.7083 180.777 76.0601 180.887 76.5094 180.887ZM76.5094 184.943C77.052 184.943 77.4631 184.812 77.7429 184.549C78.0227 184.278 78.1625 183.939 78.1625 183.532C78.1625 183.082 78.0142 182.731 77.7175 182.476C77.4292 182.222 77.0265 182.095 76.5094 182.095C75.9923 182.095 75.5811 182.222 75.2759 182.476C74.9792 182.731 74.8308 183.082 74.8308 183.532C74.8308 183.939 74.9707 184.278 75.2505 184.549C75.5387 184.812 75.9583 184.943 76.5094 184.943ZM84.278 186.304C83.693 186.304 83.1632 186.202 82.6884 185.999C82.2137 185.787 81.8322 185.465 81.544 185.032C81.2557 184.6 81.1031 184.057 81.0862 183.405H82.6884C82.6969 183.837 82.8368 184.202 83.1081 184.498C83.3878 184.786 83.7778 184.931 84.278 184.931C84.7528 184.931 85.1173 184.799 85.3716 184.536C85.626 184.274 85.7531 183.943 85.7531 183.545C85.7531 183.078 85.5836 182.726 85.2445 182.489C84.9138 182.243 84.4857 182.12 83.9601 182.12H83.2988V180.785H83.9728C84.4052 180.785 84.7655 180.683 85.0537 180.48C85.342 180.276 85.4861 179.975 85.4861 179.577C85.4861 179.246 85.3759 178.984 85.1554 178.789C84.9435 178.585 84.6468 178.483 84.2653 178.483C83.8499 178.483 83.5235 178.606 83.2861 178.852C83.0572 179.098 82.9301 179.399 82.9046 179.755H81.3151C81.349 178.933 81.633 178.284 82.1671 177.809C82.7096 177.335 83.409 177.097 84.2653 177.097C84.8757 177.097 85.3886 177.207 85.804 177.428C86.2279 177.64 86.5458 177.924 86.7577 178.28C86.9782 178.636 87.0884 179.03 87.0884 179.462C87.0884 179.963 86.9485 180.387 86.6687 180.734C86.3974 181.073 86.0583 181.302 85.6514 181.421C86.1516 181.523 86.5585 181.768 86.8722 182.158C87.1859 182.54 87.3427 183.023 87.3427 183.608C87.3427 184.1 87.224 184.549 86.9866 184.956C86.7493 185.363 86.4017 185.689 85.9439 185.935C85.4946 186.181 84.9393 186.304 84.278 186.304ZM89.3381 186.151L92.6953 178.636H88.3081V177.25H94.3738V178.407L91.0294 186.151H89.3381ZM98.4744 183.15V181.79H103.803V183.15H98.4744ZM111.428 186.304C110.809 186.304 110.288 186.185 109.864 185.948C109.44 185.702 109.109 185.384 108.872 184.994C108.634 184.604 108.495 184.185 108.452 183.735H109.965C110.033 184.125 110.194 184.426 110.449 184.638C110.711 184.85 111.042 184.956 111.441 184.956C112.009 184.956 112.466 184.697 112.814 184.18C113.161 183.655 113.348 182.858 113.373 181.79C113.17 182.137 112.861 182.425 112.445 182.654C112.038 182.883 111.589 182.998 111.097 182.998C110.605 182.998 110.143 182.879 109.711 182.642C109.279 182.404 108.927 182.069 108.656 181.637C108.384 181.205 108.249 180.696 108.249 180.111C108.249 179.577 108.38 179.081 108.643 178.623C108.906 178.165 109.27 177.797 109.737 177.517C110.203 177.237 110.75 177.097 111.377 177.097C112.047 177.097 112.61 177.22 113.068 177.466C113.526 177.712 113.891 178.042 114.162 178.458C114.442 178.873 114.641 179.335 114.76 179.844C114.887 180.353 114.95 180.874 114.95 181.408C114.95 182.4 114.81 183.265 114.531 184.002C114.259 184.731 113.857 185.299 113.323 185.706C112.797 186.105 112.165 186.304 111.428 186.304ZM111.479 181.624C111.792 181.624 112.076 181.556 112.331 181.421C112.585 181.277 112.784 181.09 112.928 180.861C113.072 180.624 113.145 180.361 113.145 180.073C113.145 179.615 112.983 179.238 112.661 178.941C112.348 178.644 111.949 178.496 111.466 178.496C110.991 178.496 110.597 178.644 110.283 178.941C109.97 179.229 109.813 179.598 109.813 180.047C109.813 180.522 109.97 180.904 110.283 181.192C110.597 181.48 110.995 181.624 111.479 181.624ZM119.248 186.304C118.664 186.304 118.134 186.202 117.659 185.999C117.184 185.787 116.803 185.465 116.514 185.032C116.226 184.6 116.074 184.057 116.057 183.405H117.659C117.667 183.837 117.807 184.202 118.079 184.498C118.358 184.786 118.748 184.931 119.248 184.931C119.723 184.931 120.088 184.799 120.342 184.536C120.596 184.274 120.724 183.943 120.724 183.545C120.724 183.078 120.554 182.726 120.215 182.489C119.884 182.243 119.456 182.12 118.931 182.12H118.269V180.785H118.943C119.376 180.785 119.736 180.683 120.024 180.48C120.312 180.276 120.457 179.975 120.457 179.577C120.457 179.246 120.346 178.984 120.126 178.789C119.914 178.585 119.617 178.483 119.236 178.483C118.82 178.483 118.494 178.606 118.257 178.852C118.028 179.098 117.901 179.399 117.875 179.755H116.286C116.319 178.933 116.603 178.284 117.138 177.809C117.68 177.335 118.38 177.097 119.236 177.097C119.846 177.097 120.359 177.207 120.774 177.428C121.198 177.64 121.516 177.924 121.728 178.28C121.949 178.636 122.059 179.03 122.059 179.462C122.059 179.963 121.919 180.387 121.639 180.734C121.368 181.073 121.029 181.302 120.622 181.421C121.122 181.523 121.529 181.768 121.843 182.158C122.156 182.54 122.313 183.023 122.313 183.608C122.313 184.1 122.194 184.549 121.957 184.956C121.72 185.363 121.372 185.689 120.914 185.935C120.465 186.181 119.91 186.304 119.248 186.304ZM124.309 186.151L127.666 178.636H123.279V177.25H129.344V178.407L126 186.151H124.309ZM133.979 186.151V184.498H129.592V183.201L133.763 177.25H135.607V183.087H136.777V184.498H135.607V186.151H133.979ZM131.334 183.087H134.081V179.043L131.334 183.087ZM140.908 183.15V181.79H146.237V183.15H140.908ZM153.735 186.304C153.15 186.304 152.62 186.202 152.145 185.999C151.67 185.787 151.289 185.465 151.001 185.032C150.712 184.6 150.56 184.057 150.543 183.405H152.145C152.154 183.837 152.293 184.202 152.565 184.498C152.844 184.786 153.234 184.931 153.735 184.931C154.209 184.931 154.574 184.799 154.828 184.536C155.083 184.274 155.21 183.943 155.21 183.545C155.21 183.078 155.04 182.726 154.701 182.489C154.37 182.243 153.942 182.12 153.417 182.12H152.755V180.785H153.429C153.862 180.785 154.222 180.683 154.51 180.48C154.799 180.276 154.943 179.975 154.943 179.577C154.943 179.246 154.833 178.984 154.612 178.789C154.4 178.585 154.103 178.483 153.722 178.483C153.307 178.483 152.98 178.606 152.743 178.852C152.514 179.098 152.387 179.399 152.361 179.755H150.772C150.806 178.933 151.09 178.284 151.624 177.809C152.166 177.335 152.866 177.097 153.722 177.097C154.332 177.097 154.845 177.207 155.261 177.428C155.685 177.64 156.002 177.924 156.214 178.28C156.435 178.636 156.545 179.03 156.545 179.462C156.545 179.963 156.405 180.387 156.125 180.734C155.854 181.073 155.515 181.302 155.108 181.421C155.608 181.523 156.015 181.768 156.329 182.158C156.642 182.54 156.799 183.023 156.799 183.608C156.799 184.1 156.681 184.549 156.443 184.956C156.206 185.363 155.858 185.689 155.401 185.935C154.951 186.181 154.396 186.304 153.735 186.304ZM161.539 186.304C160.928 186.304 160.377 186.198 159.886 185.986C159.394 185.766 159 185.456 158.703 185.058C158.415 184.659 158.271 184.197 158.271 183.672C158.271 183.129 158.411 182.654 158.69 182.247C158.979 181.84 159.356 181.548 159.822 181.37C159.415 181.192 159.093 180.938 158.856 180.607C158.618 180.268 158.5 179.891 158.5 179.475C158.5 179.051 158.614 178.661 158.843 178.305C159.072 177.941 159.411 177.648 159.86 177.428C160.318 177.207 160.878 177.097 161.539 177.097C162.2 177.097 162.755 177.207 163.205 177.428C163.654 177.648 163.993 177.941 164.222 178.305C164.451 178.661 164.565 179.051 164.565 179.475C164.565 179.882 164.442 180.259 164.197 180.607C163.959 180.946 163.641 181.2 163.243 181.37C163.718 181.548 164.095 181.84 164.375 182.247C164.654 182.654 164.794 183.129 164.794 183.672C164.794 184.197 164.65 184.659 164.362 185.058C164.074 185.456 163.679 185.766 163.179 185.986C162.688 186.198 162.141 186.304 161.539 186.304ZM161.539 180.887C161.98 180.887 162.327 180.772 162.582 180.543C162.836 180.315 162.963 180.022 162.963 179.666C162.963 179.276 162.836 178.971 162.582 178.75C162.336 178.53 161.988 178.42 161.539 178.42C161.081 178.42 160.729 178.53 160.483 178.75C160.237 178.971 160.115 179.276 160.115 179.666C160.115 180.031 160.237 180.327 160.483 180.556C160.738 180.777 161.09 180.887 161.539 180.887ZM161.539 184.943C162.081 184.943 162.493 184.812 162.772 184.549C163.052 184.278 163.192 183.939 163.192 183.532C163.192 183.082 163.044 182.731 162.747 182.476C162.459 182.222 162.056 182.095 161.539 182.095C161.022 182.095 160.611 182.222 160.305 182.476C160.009 182.731 159.86 183.082 159.86 183.532C159.86 183.939 160 184.278 160.28 184.549C160.568 184.812 160.988 184.943 161.539 184.943ZM170.465 186.151V184.498L166.077 184.498V183.201L170.248 177.25H172.092V183.087H173.262V184.498H172.092V186.151H170.465ZM167.82 183.087L170.566 183.087V179.043L167.82 183.087ZM177.886 186.304C177.217 186.304 176.653 186.181 176.195 185.935C175.737 185.689 175.368 185.359 175.089 184.943C174.809 184.528 174.605 184.066 174.478 183.557C174.36 183.049 174.3 182.527 174.3 181.993C174.3 181.001 174.44 180.141 174.72 179.412C175 178.674 175.402 178.106 175.928 177.708C176.454 177.301 177.089 177.097 177.835 177.097C178.446 177.097 178.963 177.22 179.387 177.466C179.819 177.703 180.154 178.017 180.391 178.407C180.629 178.797 180.769 179.217 180.811 179.666H179.298C179.222 179.276 179.056 178.975 178.802 178.763C178.548 178.551 178.221 178.445 177.823 178.445C177.255 178.445 176.797 178.708 176.449 179.234C176.102 179.751 175.915 180.543 175.89 181.612C176.093 181.264 176.398 180.976 176.805 180.747C177.212 180.518 177.666 180.404 178.166 180.404C178.658 180.404 179.12 180.522 179.552 180.76C179.985 180.997 180.332 181.332 180.595 181.764C180.866 182.197 181.002 182.705 181.002 183.29C181.002 183.824 180.87 184.32 180.608 184.778C180.353 185.236 179.989 185.605 179.514 185.884C179.048 186.164 178.505 186.304 177.886 186.304ZM177.797 184.905C178.272 184.905 178.662 184.761 178.967 184.473C179.281 184.176 179.438 183.803 179.438 183.354C179.438 182.879 179.281 182.498 178.967 182.209C178.654 181.921 178.255 181.777 177.772 181.777C177.458 181.777 177.174 181.849 176.92 181.993C176.674 182.129 176.479 182.315 176.335 182.553C176.191 182.782 176.119 183.04 176.119 183.328C176.119 183.786 176.276 184.163 176.589 184.46C176.911 184.757 177.314 184.905 177.797 184.905Z" fill="#262626"/>
<path d="M23.5582 205.465L25.9998 198.789H27.3732L29.8148 205.465H28.5177L27.9836 203.92H25.3799L24.8362 205.465H23.5582ZM25.7137 202.966H27.6498L26.677 200.191L25.7137 202.966ZM30.9323 205.465V200.734H32.01L32.1054 201.536C32.2516 201.256 32.4614 201.033 32.7348 200.868C33.0146 200.703 33.3421 200.62 33.7172 200.62C34.3022 200.62 34.7568 200.804 35.0811 201.173C35.4053 201.542 35.5675 202.082 35.5675 202.795V205.465H34.3467V202.909C34.3467 202.502 34.264 202.19 34.0987 201.974C33.9334 201.758 33.6759 201.65 33.3262 201.65C32.9828 201.65 32.6999 201.771 32.4773 202.012C32.2612 202.254 32.1531 202.591 32.1531 203.023V205.465H30.9323ZM39.1955 205.579C38.7504 205.579 38.353 205.471 38.0033 205.255C37.6536 205.039 37.377 204.743 37.1735 204.368C36.9701 203.993 36.8683 203.567 36.8683 203.09C36.8683 202.613 36.9701 202.19 37.1735 201.822C37.377 201.447 37.6536 201.154 38.0033 200.944C38.353 200.728 38.7504 200.62 39.1955 200.62C39.5515 200.62 39.8631 200.687 40.1301 200.82C40.3972 200.954 40.6134 201.141 40.7787 201.383V198.598H41.9995V205.465H40.9122L40.7787 204.788C40.6261 204.998 40.4226 205.182 40.1683 205.341C39.9203 205.5 39.596 205.579 39.1955 205.579ZM39.453 204.511C39.8472 204.511 40.1683 204.381 40.4163 204.12C40.6706 203.853 40.7978 203.513 40.7978 203.1C40.7978 202.686 40.6706 202.349 40.4163 202.089C40.1683 201.822 39.8472 201.688 39.453 201.688C39.0651 201.688 38.744 201.819 38.4897 202.079C38.2354 202.34 38.1082 202.677 38.1082 203.09C38.1082 203.503 38.2354 203.844 38.4897 204.111C38.744 204.378 39.0651 204.511 39.453 204.511ZM43.5287 205.465V200.734H44.616L44.7304 201.621C44.9021 201.316 45.1342 201.075 45.4267 200.897C45.7255 200.712 46.0752 200.62 46.4758 200.62V201.908H46.1324C45.8654 201.908 45.627 201.949 45.4171 202.032C45.2073 202.114 45.042 202.257 44.9212 202.461C44.8067 202.664 44.7495 202.947 44.7495 203.31V205.465H43.5287ZM49.811 205.579C49.3341 205.579 48.9113 205.478 48.5425 205.274C48.1737 205.071 47.8844 204.785 47.6746 204.416C47.4648 204.047 47.3599 203.621 47.3599 203.138C47.3599 202.648 47.4616 202.213 47.6651 201.831C47.8749 201.45 48.161 201.154 48.5234 200.944C48.8922 200.728 49.3246 200.62 49.8205 200.62C50.2847 200.62 50.6948 200.722 51.0508 200.925C51.4069 201.129 51.6835 201.408 51.8806 201.764C52.0841 202.114 52.1858 202.505 52.1858 202.938C52.1858 203.008 52.1826 203.081 52.1763 203.157C52.1763 203.233 52.1731 203.313 52.1667 203.395H48.5711C48.5965 203.764 48.7237 204.053 48.9526 204.263C49.1879 204.473 49.4708 204.578 49.8014 204.578C50.0494 204.578 50.2561 204.524 50.4214 204.416C50.593 204.301 50.7202 204.155 50.8029 203.977H52.0427C51.9537 204.276 51.8043 204.549 51.5945 204.797C51.391 205.039 51.1367 205.23 50.8315 205.37C50.5326 205.51 50.1925 205.579 49.811 205.579ZM49.8205 201.612C49.5217 201.612 49.2578 201.698 49.0289 201.869C48.8 202.035 48.6538 202.289 48.5902 202.632H50.9459C50.9269 202.321 50.8124 202.073 50.6026 201.888C50.3928 201.704 50.1321 201.612 49.8205 201.612ZM55.1296 205.579C54.7226 205.579 54.3888 205.516 54.1281 205.389C53.8675 205.255 53.6735 205.08 53.5464 204.864C53.4192 204.648 53.3556 204.41 53.3556 204.149C53.3556 203.71 53.5273 203.354 53.8706 203.081C54.214 202.807 54.729 202.671 55.4157 202.671H56.6174V202.556C56.6174 202.232 56.5252 201.993 56.3408 201.841C56.1564 201.688 55.9275 201.612 55.6541 201.612C55.4062 201.612 55.19 201.672 55.0056 201.793C54.8212 201.908 54.7067 202.079 54.6622 202.308H53.4701C53.5019 201.965 53.6163 201.666 53.8134 201.412C54.0169 201.157 54.2776 200.963 54.5955 200.83C54.9134 200.69 55.2694 200.62 55.6637 200.62C56.3376 200.62 56.8686 200.788 57.2564 201.125C57.6443 201.462 57.8382 201.939 57.8382 202.556V205.465H56.7986L56.6842 204.702C56.5443 204.956 56.3472 205.166 56.0928 205.331C55.8449 205.497 55.5238 205.579 55.1296 205.579ZM55.4062 204.626C55.7559 204.626 56.0261 204.511 56.2168 204.282C56.4139 204.053 56.5379 203.771 56.5888 203.434H55.5492C55.2249 203.434 54.9929 203.494 54.853 203.615C54.7131 203.729 54.6432 203.872 54.6432 204.044C54.6432 204.228 54.7131 204.371 54.853 204.473C54.9929 204.575 55.1773 204.626 55.4062 204.626ZM61.2445 205.579C60.8248 205.579 60.456 205.513 60.1381 205.379C59.8202 205.239 59.5659 205.049 59.3751 204.807C59.1844 204.565 59.0699 204.286 59.0318 203.968H60.2621C60.3003 204.152 60.402 204.311 60.5673 204.444C60.739 204.572 60.9583 204.635 61.2254 204.635C61.4924 204.635 61.6864 204.581 61.8072 204.473C61.9343 204.365 61.9979 204.241 61.9979 204.101C61.9979 203.898 61.9089 203.761 61.7309 203.691C61.5528 203.615 61.3049 203.542 60.987 203.472C60.7835 203.427 60.5768 203.373 60.367 203.31C60.1572 203.246 59.9633 203.166 59.7852 203.071C59.6136 202.969 59.4737 202.842 59.3656 202.69C59.2575 202.531 59.2035 202.337 59.2035 202.108C59.2035 201.688 59.3688 201.335 59.6994 201.049C60.0364 200.763 60.5069 200.62 61.1109 200.62C61.6705 200.62 62.1155 200.75 62.4462 201.011C62.7832 201.272 62.9834 201.631 63.047 202.089H61.893C61.8231 201.739 61.5592 201.564 61.1014 201.564C60.8725 201.564 60.6945 201.609 60.5673 201.698C60.4465 201.787 60.3861 201.898 60.3861 202.032C60.3861 202.171 60.4783 202.283 60.6627 202.365C60.8471 202.448 61.0919 202.524 61.3971 202.594C61.7277 202.671 62.0297 202.756 62.3031 202.852C62.5829 202.941 62.8054 203.077 62.9707 203.262C63.136 203.44 63.2187 203.697 63.2187 204.034C63.2251 204.327 63.1488 204.591 62.9898 204.826C62.8308 205.061 62.602 205.246 62.3031 205.379C62.0043 205.513 61.6514 205.579 61.2445 205.579ZM66.7444 205.465L69.186 198.789H70.5594L73.0009 205.465H71.7039L71.1698 203.92H68.5661L68.0224 205.465H66.7444ZM68.8999 202.966H70.836L69.8631 200.191L68.8999 202.966ZM74.1185 205.465V200.734H75.1962L75.2916 201.536C75.4378 201.256 75.6476 201.033 75.921 200.868C76.2008 200.703 76.5283 200.62 76.9034 200.62C77.4883 200.62 77.943 200.804 78.2672 201.173C78.5915 201.542 78.7536 202.082 78.7536 202.795V205.465H77.5329V202.909C77.5329 202.502 77.4502 202.19 77.2849 201.974C77.1196 201.758 76.8621 201.65 76.5124 201.65C76.169 201.65 75.8861 201.771 75.6635 202.012C75.4473 202.254 75.3393 202.591 75.3393 203.023V205.465H74.1185ZM82.3149 205.465C81.8189 205.465 81.4216 205.344 81.1227 205.103C80.8239 204.861 80.6745 204.432 80.6745 203.815V201.755H79.8638V200.734H80.6745L80.8175 199.466H81.8952V200.734H83.1733V201.755H81.8952V203.825C81.8952 204.053 81.9429 204.212 82.0383 204.301C82.14 204.384 82.3117 204.425 82.5533 204.425H83.1446V205.465H82.3149ZM86.6564 205.579C86.1986 205.579 85.7853 205.475 85.4165 205.265C85.0541 205.055 84.7648 204.766 84.5486 204.397C84.3388 204.022 84.2339 203.589 84.2339 203.1C84.2339 202.61 84.3419 202.181 84.5581 201.812C84.7743 201.437 85.0636 201.145 85.426 200.935C85.7948 200.725 86.2081 200.62 86.6659 200.62C87.1173 200.62 87.5243 200.725 87.8867 200.935C88.2555 201.145 88.5448 201.437 88.7546 201.812C88.9708 202.181 89.0789 202.61 89.0789 203.1C89.0789 203.589 88.9708 204.022 88.7546 204.397C88.5448 204.766 88.2555 205.055 87.8867 205.265C87.5179 205.475 87.1078 205.579 86.6564 205.579ZM86.6564 204.521C86.9743 204.521 87.2508 204.403 87.4861 204.168C87.7214 203.926 87.839 203.57 87.839 203.1C87.839 202.629 87.7214 202.276 87.4861 202.041C87.2508 201.799 86.9774 201.679 86.6659 201.679C86.3416 201.679 86.0619 201.799 85.8266 202.041C85.5977 202.276 85.4833 202.629 85.4833 203.1C85.4833 203.57 85.5977 203.926 85.8266 204.168C86.0619 204.403 86.3384 204.521 86.6564 204.521ZM90.4565 205.465V200.734H91.5342L91.6296 201.536C91.7758 201.256 91.9857 201.033 92.2591 200.868C92.5388 200.703 92.8663 200.62 93.2414 200.62C93.8264 200.62 94.281 200.804 94.6053 201.173C94.9295 201.542 95.0917 202.082 95.0917 202.795V205.465H93.8709V202.909C93.8709 202.502 93.7882 202.19 93.6229 201.974C93.4576 201.758 93.2001 201.65 92.8504 201.65C92.507 201.65 92.2241 201.771 92.0015 202.012C91.7854 202.254 91.6773 202.591 91.6773 203.023V205.465H90.4565ZM98.5003 205.579C98.0807 205.579 97.7119 205.513 97.394 205.379C97.0761 205.239 96.8217 205.049 96.631 204.807C96.4402 204.565 96.3258 204.286 96.2876 203.968H97.518C97.5561 204.152 97.6578 204.311 97.8232 204.444C97.9948 204.572 98.2142 204.635 98.4812 204.635C98.7483 204.635 98.9422 204.581 99.063 204.473C99.1902 204.365 99.2538 204.241 99.2538 204.101C99.2538 203.898 99.1648 203.761 98.9867 203.691C98.8087 203.615 98.5607 203.542 98.2428 203.472C98.0393 203.427 97.8327 203.373 97.6229 203.31C97.4131 203.246 97.2191 203.166 97.0411 203.071C96.8694 202.969 96.7295 202.842 96.6214 202.69C96.5134 202.531 96.4593 202.337 96.4593 202.108C96.4593 201.688 96.6246 201.335 96.9553 201.049C97.2922 200.763 97.7628 200.62 98.3668 200.62C98.9263 200.62 99.3714 200.75 99.702 201.011C100.039 201.272 100.239 201.631 100.303 202.089H99.1489C99.0789 201.739 98.8151 201.564 98.3573 201.564C98.1284 201.564 97.9503 201.609 97.8232 201.698C97.7024 201.787 97.6419 201.898 97.6419 202.032C97.6419 202.171 97.7341 202.283 97.9185 202.365C98.1029 202.448 98.3477 202.524 98.6529 202.594C98.9835 202.671 99.2856 202.756 99.559 202.852C99.8387 202.941 100.061 203.077 100.227 203.262C100.392 203.44 100.475 203.697 100.475 204.034C100.481 204.327 100.405 204.591 100.246 204.826C100.087 205.061 99.8578 205.246 99.559 205.379C99.2601 205.513 98.9072 205.579 98.5003 205.579ZM104.141 205.579C103.664 205.579 103.241 205.478 102.872 205.274C102.503 205.071 102.214 204.785 102.004 204.416C101.794 204.047 101.69 203.621 101.69 203.138C101.69 202.648 101.791 202.213 101.995 201.831C102.205 201.45 102.491 201.154 102.853 200.944C103.222 200.728 103.654 200.62 104.15 200.62C104.614 200.62 105.024 200.722 105.381 200.925C105.737 201.129 106.013 201.408 106.21 201.764C106.414 202.114 106.515 202.505 106.515 202.938C106.515 203.008 106.512 203.081 106.506 203.157C106.506 203.233 106.503 203.313 106.496 203.395H102.901C102.926 203.764 103.053 204.053 103.282 204.263C103.518 204.473 103.8 204.578 104.131 204.578C104.379 204.578 104.586 204.524 104.751 204.416C104.923 204.301 105.05 204.155 105.133 203.977H106.372C106.283 204.276 106.134 204.549 105.924 204.797C105.721 205.039 105.466 205.23 105.161 205.37C104.862 205.51 104.522 205.579 104.141 205.579ZM104.15 201.612C103.851 201.612 103.587 201.698 103.359 201.869C103.13 202.035 102.983 202.289 102.92 202.632H105.276C105.257 202.321 105.142 202.073 104.932 201.888C104.722 201.704 104.462 201.612 104.15 201.612ZM107.828 205.465V200.734H108.906L109.001 201.536C109.148 201.256 109.358 201.033 109.631 200.868C109.911 200.703 110.238 200.62 110.613 200.62C111.198 200.62 111.653 200.804 111.977 201.173C112.301 201.542 112.464 202.082 112.464 202.795V205.465H111.243V202.909C111.243 202.502 111.16 202.19 110.995 201.974C110.829 201.758 110.572 201.65 110.222 201.65C109.879 201.65 109.596 201.771 109.373 202.012C109.157 202.254 109.049 202.591 109.049 203.023V205.465H107.828Z" fill="#262626"/>
<path d="M84.0386 152.768C83.703 152.671 83.3633 152.273 83.2934 151.893C83.2481 151.645 83.3056 151.474 83.6641 150.787C85.1139 148.014 85.7494 145.461 85.7615 142.364C85.7732 139.37 85.2294 137.04 83.8635 134.248C83.5709 133.649 83.331 133.093 83.3313 133.012C83.3325 132.715 83.5841 132.284 83.8546 132.115C84.2258 131.884 84.8473 131.927 85.1438 132.205C85.2571 132.312 85.5528 132.797 85.7996 133.283C86.7761 135.209 87.4424 137.321 87.7671 139.52C87.9681 140.881 87.999 143.46 87.8289 144.706C87.517 147.004 86.8993 149.054 85.9167 151.063C85.3221 152.277 84.9511 152.777 84.6403 152.777C84.5782 152.777 84.4776 152.792 84.4167 152.811C84.3544 152.829 84.1839 152.81 84.0386 152.768ZM80.0392 150.68C79.5253 150.531 79.1561 149.901 79.3061 149.429C79.3423 149.315 79.5877 148.789 79.8503 148.26C80.9607 146.021 81.4291 143.62 81.2134 141.263C81.0371 139.326 80.6927 138.105 79.8215 136.318C79.2376 135.119 79.2105 134.933 79.555 134.45C79.8834 133.991 80.6958 133.917 81.1215 134.307C81.4167 134.577 82.3284 136.491 82.68 137.575C83.8418 141.163 83.6469 145.014 82.1267 148.539C81.3486 150.344 80.8042 150.902 80.0392 150.68ZM75.9157 148.563C75.5975 148.42 75.325 148.085 75.2523 147.747C75.2068 147.541 75.287 147.313 75.6669 146.551C77.0666 143.752 77.0917 141.055 75.7453 138.321C75.1535 137.12 75.1412 136.881 75.647 136.408C75.8979 136.174 76.0025 136.133 76.353 136.133C76.9389 136.133 77.2406 136.426 77.7602 137.497C78.5593 139.145 78.883 140.574 78.8732 142.405C78.8632 144.288 78.55 145.58 77.6836 147.317C77.1864 148.312 76.942 148.575 76.4484 148.642C76.2975 148.663 76.0583 148.627 75.9157 148.563ZM72.068 146.591C71.8158 146.487 71.5301 146.145 71.4453 145.848C71.3514 145.516 71.4304 145.252 71.8111 144.632C72.3009 143.834 72.4163 143.406 72.4204 142.364C72.4245 141.321 72.3124 140.893 71.8288 140.095C71.6645 139.825 71.5005 139.501 71.4626 139.375C71.3086 138.849 71.7502 138.205 72.3418 138.095C72.8435 138.001 73.1865 138.223 73.6439 138.939C74.9691 141.012 74.9583 143.781 73.6171 145.837C73.1434 146.562 72.6173 146.818 72.068 146.591Z" fill="#0D1218"/>
<g clip-path="url(#clip2_1_2601)">
<rect x="23.3391" y="155.582" width="25.8793" height="35.5841" rx="3.55841" transform="rotate(-90 23.3391 155.582)" fill="url(#paint0_linear_1_2601)"/>
<path fill-rule="evenodd" clip-rule="evenodd" d="M46.9358 129.163L41.279 134.443L35.6222 129.141L35.1595 129.574L40.9519 135.003V137.936L35.7179 137.926L35.0637 137.924L20.6704 137.896V138.508L35.0637 138.536V147.104L20.6704 147.076V147.688L35.0637 147.716L35.7179 147.717L40.9519 147.727V150.661L35.1595 156.067L35.6222 156.501L41.279 151.221L46.9358 156.523L47.3985 156.091L41.6061 150.662V147.729L46.84 147.739L47.4943 147.74L61.8876 147.768V147.156L47.4943 147.128V138.561L61.8876 138.589V137.977L47.1672 137.948C46.9865 137.948 46.84 138.084 46.84 138.253V147.127L41.279 147.116L35.7179 147.105V138.538L41.279 138.548C41.4597 138.549 41.6061 138.412 41.6061 138.243V135.005L47.3985 129.598L46.9358 129.163Z" fill="#47453F"/>
</g>
<rect x="23.3391" y="155.582" width="25.8793" height="35.5841" rx="3.55841" transform="rotate(-90 23.3391 155.582)" stroke="#47453F" stroke-width="0.533761"/>
<path d="M32.4313 37.5189L32.4101 37.54C32.124 36.9148 31.9439 36.2048 31.8697 35.4206C31.9439 36.1942 32.1452 36.8936 32.4313 37.5189Z" fill="#292D32"/>
<path d="M39.2347 28.3735C40.6276 28.3735 41.7568 27.2444 41.7568 25.8514C41.7568 24.4585 40.6276 23.3293 39.2347 23.3293C37.8418 23.3293 36.7126 24.4585 36.7126 25.8514C36.7126 27.2444 37.8418 28.3735 39.2347 28.3735Z" fill="#292D32"/>
</g>
<defs>
<linearGradient id="paint0_linear_1_2601" x1="23.5478" y1="155.582" x2="66.3931" y2="192.982" gradientUnits="userSpaceOnUse">
<stop stop-color="#F8ECC1"/>
<stop offset="1" stop-color="#C8AC48"/>
</linearGradient>
<clipPath id="clip0_1_2601">
<rect x="0.025177" y="229.316" width="228.898" height="381.496" rx="16.9554" transform="rotate(-90 0.025177 229.316)" fill="white"/>
</clipPath>
<clipPath id="clip1_1_2601">
<rect width="228.898" height="108.091" fill="white" transform="matrix(0 -1 1 0 273.43 229.316)"/>
</clipPath>
<clipPath id="clip2_1_2601">
<rect x="23.3391" y="155.582" width="25.8793" height="35.5841" rx="3.55841" transform="rotate(-90 23.3391 155.582)" fill="white"/>
</clipPath>
</defs>
</svg>
