<svg width="24" height="24" viewBox="0 0 24 24" fill="none" xmlns="http://www.w3.org/2000/svg">
<path d="M22.7714 0.931866C22.6109 0.771056 22.4203 0.643475 22.2104 0.556426C22.0006 0.469378 21.7756 0.424571 21.5485 0.424571C21.3213 0.424571 21.0963 0.469378 20.8865 0.556426C20.6766 0.643475 20.486 0.771056 20.3255 0.931866L11.843 9.39707L3.36041 0.914519C3.19981 0.753919 3.00915 0.626525 2.79932 0.539609C2.58948 0.452693 2.36459 0.407959 2.13746 0.407959C1.91034 0.407959 1.68544 0.452693 1.47561 0.539609C1.26578 0.626525 1.07512 0.753919 0.914519 0.914519C0.753919 1.07512 0.626525 1.26578 0.539609 1.47561C0.452693 1.68544 0.407959 1.91034 0.407959 2.13746C0.407959 2.36459 0.452693 2.58948 0.539609 2.79932C0.626525 3.00915 0.753919 3.19981 0.914519 3.36041L9.39707 11.843L0.914519 20.3255C0.753919 20.4861 0.626525 20.6768 0.539609 20.8866C0.452693 21.0964 0.407959 21.3213 0.407959 21.5485C0.407959 21.7756 0.452693 22.0005 0.539609 22.2103C0.626525 22.4201 0.753919 22.6108 0.914519 22.7714C1.07512 22.932 1.26578 23.0594 1.47561 23.1463C1.68544 23.2332 1.91034 23.278 2.13746 23.278C2.36459 23.278 2.58948 23.2332 2.79932 23.1463C3.00915 23.0594 3.19981 22.932 3.36041 22.7714L11.843 14.2888L20.3255 22.7714C20.4861 22.932 20.6768 23.0594 20.8866 23.1463C21.0964 23.2332 21.3213 23.278 21.5485 23.278C21.7756 23.278 22.0005 23.2332 22.2103 23.1463C22.4201 23.0594 22.6108 22.932 22.7714 22.7714C22.932 22.6108 23.0594 22.4201 23.1463 22.2103C23.2332 22.0005 23.278 21.7756 23.278 21.5485C23.278 21.3213 23.2332 21.0964 23.1463 20.8866C23.0594 20.6768 22.932 20.4861 22.7714 20.3255L14.2888 11.843L22.7714 3.36041C23.4306 2.70123 23.4306 1.59104 22.7714 0.931866Z" fill="#111111"/>
</svg>
