<svg width="24" height="24" viewBox="0 0 24 24" fill="none" xmlns="http://www.w3.org/2000/svg">
<path d="M20.3979 15.5255V17.9075C20.3979 19.7463 18.902 21.2422 17.0632 21.2422H7.53541C5.69654 21.2422 4.20068 19.7463 4.20068 17.9075V17.2882C4.20068 15.7923 5.42024 14.5728 6.9161 14.5728H19.4451C19.9692 14.5728 20.3979 15.0015 20.3979 15.5255Z" fill="#000"/>
<path d="M15.634 2.18665H8.96457C5.15346 2.18665 4.20068 3.13942 4.20068 6.95053L4.20068 14.1726C4.92479 13.5342 5.87757 13.1436 6.9161 13.1436H19.4451C19.9692 13.1436 20.3979 12.7148 20.3979 12.1908V6.95053C20.3979 3.13942 19.4451 2.18665 15.634 2.18665ZM13.2521 10.5235H8.48818C8.09754 10.5235 7.7736 10.1995 7.7736 9.80887C7.7736 9.41823 8.09754 9.09428 8.48818 9.09428H13.2521C13.6427 9.09428 13.9667 9.41823 13.9667 9.80887C13.9667 10.1995 13.6427 10.5235 13.2521 10.5235ZM16.1104 7.18873L8.48818 7.18873C8.09754 7.18873 7.7736 6.86478 7.7736 6.47415C7.7736 6.08351 8.09754 5.75956 8.48818 5.75956H16.1104C16.501 5.75956 16.825 6.08351 16.825 6.47415C16.825 6.86478 16.501 7.18873 16.1104 7.18873Z" fill="#000"/>
</svg>
