<svg width="24" height="24" viewBox="0 0 24 24" fill="none" xmlns="http://www.w3.org/2000/svg">
<path d="M3.4858 18.6499C3.09516 18.6499 2.77122 18.326 2.77122 17.9353L2.77122 12.5045C2.72358 9.92246 3.68589 7.48335 5.47711 5.65402C7.26833 3.83421 9.66933 2.83379 12.2514 2.83379C17.5297 2.83379 21.8268 7.13082 21.8268 12.4092V17.84C21.8268 18.2307 21.5028 18.5546 21.1122 18.5546C20.7216 18.5546 20.3976 18.2307 20.3976 17.84V12.4092C20.3976 7.92163 16.7485 4.26296 12.2514 4.26296C10.0504 4.26296 8.0115 5.11093 6.49658 6.65443C4.97214 8.20746 4.16227 10.275 4.20039 12.4854L4.20039 17.9258C4.20039 18.326 3.88597 18.6499 3.4858 18.6499Z" fill="#A4A4A5"/>
<path d="M6.52494 12.7427H6.40108C4.40025 12.7427 2.771 14.372 2.771 16.3728L2.771 18.164C2.771 20.1649 4.40025 21.7941 6.40108 21.7941H6.52494C8.52577 21.7941 10.155 20.1649 10.155 18.164V16.3728C10.155 14.372 8.52577 12.7427 6.52494 12.7427Z" fill="#A4A4A5"/>
<path d="M18.1968 12.7427H18.073C16.0721 12.7427 14.4429 14.372 14.4429 16.3728V18.164C14.4429 20.1649 16.0721 21.7941 18.073 21.7941H18.1968C20.1976 21.7941 21.8269 20.1649 21.8269 18.164V16.3728C21.8269 14.372 20.1976 12.7427 18.1968 12.7427Z" fill="#A4A4A5"/>
</svg>
