<svg width="239" height="97" viewBox="0 0 239 97" fill="none" xmlns="http://www.w3.org/2000/svg">
<g clip-path="url(#clip0_1_159)">
<path d="M47.6966 73.1443C61.372 73.1443 72.4581 62.0582 72.4581 48.3828C72.4581 34.7074 61.372 23.6213 47.6966 23.6213C34.0212 23.6213 22.9351 34.7074 22.9351 48.3828C22.9351 62.0582 34.0212 73.1443 47.6966 73.1443Z" fill="black"/>
<path d="M47.6351 69.1628C59.0526 69.1628 68.3084 59.9071 68.3084 48.4896C68.3084 37.0721 59.0526 27.8163 47.6351 27.8163C36.2176 27.8163 26.9619 37.0721 26.9619 48.4896C26.9619 59.9071 36.2176 69.1628 47.6351 69.1628Z" fill="white"/>
<path d="M47.6346 64.0836C56.2469 64.0836 63.2286 57.1019 63.2286 48.4895C63.2286 39.8772 56.2469 32.8955 47.6346 32.8955C39.0222 32.8955 32.0405 39.8772 32.0405 48.4895C32.0405 57.1019 39.0222 64.0836 47.6346 64.0836Z" fill="black"/>
<path d="M45.5287 46.5183C47.2413 46.5183 48.6297 45.13 48.6297 43.4173C48.6297 41.7047 47.2413 40.3163 45.5287 40.3163C43.8161 40.3163 42.4277 41.7047 42.4277 43.4173C42.4277 45.13 43.8161 46.5183 45.5287 46.5183Z" fill="white"/>
<path d="M48.3447 44.7219C48.3447 44.7219 52.7217 43.2124 55.2881 47.52C55.2881 47.52 57.5372 52.4619 53.4988 55.0924C53.4988 55.0924 50.8059 57.1829 47.336 55.5201C47.336 55.5201 46.1794 54.9498 45.2295 52.2249C45.2295 52.2249 44.7697 50.6726 43.4241 50.5621C43.4241 50.5621 40.7794 50.2609 41.159 53.1445C41.159 53.1445 41.6651 55.2671 44.0728 54.3956C44.0728 54.3956 45.0869 53.6667 45.4505 54.1104C45.4505 54.1104 46.0279 55.0265 45.0067 55.5201C45.0067 55.5201 43.5328 56.6287 41.6954 55.8053C41.6954 55.8053 40.0647 55.2475 39.5889 52.7881C39.5889 52.7881 39.4338 48.9742 43.581 49.1043C43.581 49.1043 45.5734 49.0651 46.4806 51.5049C46.4806 51.5049 47.1221 53.738 47.9651 54.1657C47.9651 54.1657 50.1465 55.5255 52.5738 53.9287C52.5738 53.9287 55.8655 51.9201 53.7625 47.8942C53.7625 47.8942 51.6596 44.4136 47.6211 46.6592C47.6211 46.6592 47.0508 47.0869 46.7069 47.5859C46.7069 47.5859 46.4806 48.2221 45.8996 48.3023C45.8996 48.3023 45.2936 48.4182 45.1154 47.8122C45.1154 47.8122 44.914 47.1118 45.6857 46.399C45.6839 46.3954 46.9653 44.533 48.3447 44.7219Z" fill="white"/>
<path d="M41.8588 49.9116C42.9809 49.9116 43.8905 49.002 43.8905 47.8799C43.8905 46.7579 42.9809 45.8483 41.8588 45.8483C40.7368 45.8483 39.8271 46.7579 39.8271 47.8799C39.8271 49.002 40.7368 49.9116 41.8588 49.9116Z" fill="white"/>
</g>
<path d="M92.4564 39.9403V56.1971H89.1068V39.9403H92.4564ZM98.9323 46.8852V49.4979H91.5408V46.8852H98.9323ZM99.7139 39.9403V42.5642H91.5408V39.9403H99.7139ZM100.696 50.2794V50.045C100.696 49.1592 100.823 48.3441 101.076 47.5998C101.329 46.848 101.698 46.1966 102.181 45.6458C102.665 45.095 103.261 44.667 103.968 44.3618C104.675 44.0492 105.486 43.8929 106.402 43.8929C107.317 43.8929 108.133 44.0492 108.847 44.3618C109.562 44.667 110.161 45.095 110.645 45.6458C111.136 46.1966 111.508 46.848 111.761 47.5998C112.014 48.3441 112.141 49.1592 112.141 50.045V50.2794C112.141 51.1578 112.014 51.9729 111.761 52.7247C111.508 53.469 111.136 54.1203 110.645 54.6786C110.161 55.2294 109.565 55.6574 108.858 55.9626C108.151 56.2678 107.34 56.4204 106.424 56.4204C105.509 56.4204 104.694 56.2678 103.979 55.9626C103.272 55.6574 102.673 55.2294 102.181 54.6786C101.698 54.1203 101.329 53.469 101.076 52.7247C100.823 51.9729 100.696 51.1578 100.696 50.2794ZM103.912 50.045V50.2794C103.912 50.7856 103.957 51.2583 104.046 51.6974C104.135 52.1366 104.277 52.5237 104.47 52.8586C104.671 53.1862 104.932 53.443 105.252 53.629C105.572 53.8151 105.963 53.9082 106.424 53.9082C106.871 53.9082 107.254 53.8151 107.574 53.629C107.894 53.443 108.151 53.1862 108.345 52.8586C108.538 52.5237 108.68 52.1366 108.769 51.6974C108.866 51.2583 108.914 50.7856 108.914 50.2794V50.045C108.914 49.5537 108.866 49.0922 108.769 48.6605C108.68 48.2213 108.535 47.8342 108.334 47.4993C108.14 47.1569 107.883 46.8889 107.563 46.6954C107.243 46.5018 106.856 46.4051 106.402 46.4051C105.948 46.4051 105.561 46.5018 105.241 46.6954C104.928 46.8889 104.671 47.1569 104.47 47.4993C104.277 47.8342 104.135 48.2213 104.046 48.6605C103.957 49.0922 103.912 49.5537 103.912 50.045ZM116.462 44.1162L118.461 47.7896L120.515 44.1162H123.943L120.526 50.0226L124.099 56.1971H120.66L118.483 52.3115L116.306 56.1971H112.867L116.44 50.0226L113.023 44.1162H116.462ZM125.662 54.6451C125.662 54.1687 125.826 53.7705 126.153 53.4504C126.488 53.1303 126.931 52.9703 127.482 52.9703C128.033 52.9703 128.472 53.1303 128.8 53.4504C129.135 53.7705 129.302 54.1687 129.302 54.6451C129.302 55.1215 129.135 55.5197 128.8 55.8398C128.472 56.1599 128.033 56.3199 127.482 56.3199C126.931 56.3199 126.488 56.1599 126.153 55.8398C125.826 55.5197 125.662 55.1215 125.662 54.6451ZM135.901 39.9403V56.1971H132.562V39.9403H135.901ZM141.986 46.6954V56.1971H138.77V44.1162H141.785L141.986 46.6954ZM141.517 49.7323H140.646C140.646 48.8391 140.761 48.0352 140.992 47.3206C141.223 46.5986 141.547 45.9845 141.964 45.4783C142.38 44.9647 142.875 44.5739 143.449 44.306C144.029 44.0306 144.677 43.8929 145.391 43.8929C145.957 43.8929 146.474 43.9747 146.943 44.1385C147.412 44.3022 147.814 44.5628 148.149 44.9201C148.492 45.2774 148.752 45.75 148.931 46.3381C149.117 46.9261 149.21 47.6444 149.21 48.493V56.1971H145.972V48.4818C145.972 47.9459 145.898 47.529 145.749 47.2313C145.6 46.9336 145.38 46.7251 145.09 46.606C144.807 46.4795 144.457 46.4162 144.04 46.4162C143.609 46.4162 143.233 46.5018 142.913 46.673C142.6 46.8442 142.339 47.0824 142.131 47.3876C141.93 47.6854 141.778 48.0352 141.673 48.4372C141.569 48.8391 141.517 49.2708 141.517 49.7323ZM155.764 53.8524L158.444 44.1162H161.804L157.729 56.1971H155.697L155.764 53.8524ZM153.922 44.1162L156.613 53.8635L156.668 56.1971H154.625L150.55 44.1162H153.922ZM162.553 50.2794V50.045C162.553 49.1592 162.679 48.3441 162.932 47.5998C163.185 46.848 163.554 46.1966 164.038 45.6458C164.521 45.095 165.117 44.667 165.824 44.3618C166.531 44.0492 167.342 43.8929 168.258 43.8929C169.174 43.8929 169.989 44.0492 170.703 44.3618C171.418 44.667 172.017 45.095 172.501 45.6458C172.992 46.1966 173.364 46.848 173.617 47.5998C173.87 48.3441 173.997 49.1592 173.997 50.045V50.2794C173.997 51.1578 173.87 51.9729 173.617 52.7247C173.364 53.469 172.992 54.1203 172.501 54.6786C172.017 55.2294 171.422 55.6574 170.714 55.9626C170.007 56.2678 169.196 56.4204 168.28 56.4204C167.365 56.4204 166.55 56.2678 165.835 55.9626C165.128 55.6574 164.529 55.2294 164.038 54.6786C163.554 54.1203 163.185 53.469 162.932 52.7247C162.679 51.9729 162.553 51.1578 162.553 50.2794ZM165.768 50.045V50.2794C165.768 50.7856 165.813 51.2583 165.902 51.6974C165.991 52.1366 166.133 52.5237 166.326 52.8586C166.527 53.1862 166.788 53.443 167.108 53.629C167.428 53.8151 167.819 53.9082 168.28 53.9082C168.727 53.9082 169.11 53.8151 169.43 53.629C169.75 53.443 170.007 53.1862 170.201 52.8586C170.394 52.5237 170.536 52.1366 170.625 51.6974C170.722 51.2583 170.77 50.7856 170.77 50.2794V50.045C170.77 49.5537 170.722 49.0922 170.625 48.6605C170.536 48.2213 170.391 47.8342 170.19 47.4993C169.996 47.1569 169.739 46.8889 169.419 46.6954C169.099 46.5018 168.712 46.4051 168.258 46.4051C167.804 46.4051 167.417 46.5018 167.097 46.6954C166.784 46.8889 166.527 47.1569 166.326 47.4993C166.133 47.8342 165.991 48.2213 165.902 48.6605C165.813 49.0922 165.768 49.5537 165.768 50.045ZM179.368 44.1162V56.1971H176.141V44.1162H179.368ZM175.94 40.9675C175.94 40.4986 176.104 40.1115 176.431 39.8063C176.759 39.5011 177.198 39.3486 177.749 39.3486C178.292 39.3486 178.727 39.5011 179.055 39.8063C179.39 40.1115 179.557 40.4986 179.557 40.9675C179.557 41.4365 179.39 41.8235 179.055 42.1287C178.727 42.4339 178.292 42.5865 177.749 42.5865C177.198 42.5865 176.759 42.4339 176.431 42.1287C176.104 41.8235 175.94 41.4365 175.94 40.9675ZM187.016 53.9082C187.41 53.9082 187.76 53.8337 188.065 53.6849C188.371 53.5286 188.609 53.3127 188.78 53.0373C188.959 52.7544 189.052 52.4232 189.059 52.0436H192.085C192.077 52.8921 191.85 53.6477 191.404 54.3101C190.957 54.9652 190.358 55.4825 189.606 55.8621C188.854 56.2343 188.013 56.4204 187.083 56.4204C186.145 56.4204 185.326 56.2641 184.626 55.9514C183.934 55.6388 183.357 55.2071 182.896 54.6563C182.434 54.098 182.088 53.4504 181.857 52.7135C181.627 51.9691 181.511 51.1727 181.511 50.3241V50.0003C181.511 49.1443 181.627 48.3478 181.857 47.6109C182.088 46.8666 182.434 46.219 182.896 45.6681C183.357 45.1099 183.934 44.6744 184.626 44.3618C185.319 44.0492 186.13 43.8929 187.06 43.8929C188.05 43.8929 188.918 44.0827 189.662 44.4623C190.414 44.8419 191.002 45.3853 191.426 46.0924C191.858 46.7921 192.077 47.6221 192.085 48.5823H189.059C189.052 48.1804 188.966 47.8156 188.802 47.4881C188.646 47.1606 188.415 46.9001 188.11 46.7065C187.812 46.5055 187.444 46.4051 187.005 46.4051C186.536 46.4051 186.152 46.5055 185.855 46.7065C185.557 46.9001 185.326 47.168 185.162 47.5104C184.999 47.8454 184.883 48.2287 184.816 48.6605C184.757 49.0847 184.727 49.5314 184.727 50.0003V50.3241C184.727 50.793 184.757 51.2434 184.816 51.6751C184.876 52.1068 184.987 52.4902 185.151 52.8251C185.322 53.1601 185.557 53.4244 185.855 53.6179C186.152 53.8114 186.539 53.9082 187.016 53.9082ZM199.51 56.4204C198.572 56.4204 197.731 56.2715 196.987 55.9738C196.242 55.6686 195.609 55.248 195.088 54.7121C194.575 54.1762 194.18 53.5546 193.905 52.8475C193.629 52.1329 193.492 51.3736 193.492 50.5697V50.1231C193.492 49.2076 193.622 48.3702 193.883 47.6109C194.143 46.8517 194.515 46.1929 194.999 45.6346C195.49 45.0764 196.086 44.6484 196.786 44.3506C197.485 44.0454 198.274 43.8929 199.153 43.8929C200.009 43.8929 200.768 44.0343 201.43 44.3171C202.093 44.6 202.647 45.0019 203.094 45.523C203.548 46.044 203.89 46.6693 204.121 47.3988C204.352 48.1208 204.467 48.9247 204.467 49.8105V51.1503H194.865V49.0066H201.307V48.761C201.307 48.3143 201.226 47.9161 201.062 47.5663C200.906 47.209 200.667 46.9261 200.347 46.7177C200.027 46.5093 199.618 46.4051 199.119 46.4051C198.695 46.4051 198.33 46.4981 198.025 46.6842C197.72 46.8703 197.47 47.1308 197.277 47.4658C197.091 47.8007 196.949 48.1952 196.853 48.6493C196.763 49.0959 196.719 49.5872 196.719 50.1231V50.5697C196.719 51.0536 196.786 51.5002 196.92 51.9096C197.061 52.319 197.258 52.6725 197.511 52.9703C197.772 53.268 198.084 53.4988 198.449 53.6625C198.821 53.8263 199.242 53.9082 199.711 53.9082C200.291 53.9082 200.831 53.7965 201.33 53.5732C201.836 53.3425 202.271 52.9963 202.636 52.5348L204.199 54.232C203.946 54.5967 203.6 54.9466 203.161 55.2815C202.729 55.6165 202.208 55.8919 201.598 56.1078C200.987 56.3162 200.291 56.4204 199.51 56.4204Z" fill="#212633"/>
<defs>
<clipPath id="clip0_1_159">
<rect width="49.5444" height="49.5444" fill="white" transform="translate(22.8669 23.6691)"/>
</clipPath>
</defs>
</svg>
