<svg width="24" height="24" viewBox="0 0 24 24" fill="none" xmlns="http://www.w3.org/2000/svg">
<path d="M19.3117 7.15605C20.7587 7.15605 21.9318 5.98297 21.9318 4.53591C21.9318 3.08885 20.7587 1.91577 19.3117 1.91577C17.8646 1.91577 16.6915 3.08885 16.6915 4.53591C16.6915 5.98297 17.8646 7.15605 19.3117 7.15605Z" fill="#34C759"/>
<path d="M18.397 8.49014C16.9011 8.16619 15.6815 6.94664 15.3576 5.45078C15.2337 4.86958 15.2242 4.30744 15.329 3.77389C15.4529 3.18317 15.0146 2.63055 14.4048 2.63055L6.92551 2.63055C4.29584 2.63055 2.16162 4.76478 2.16162 7.39444V14.0162C2.16162 16.6459 4.29584 18.7801 6.92551 18.7801H8.35468C8.62146 18.7801 8.96446 18.9516 9.1169 19.1613L10.5461 21.0573C11.1749 21.8957 12.2039 21.8957 12.8327 21.0573L14.2619 19.1613C14.4429 18.9231 14.7192 18.7801 15.0241 18.7801H16.4628C19.0925 18.7801 21.2172 16.6554 21.2172 14.0258V9.44292C21.2172 8.84267 20.6646 8.40439 20.0738 8.51872C19.5403 8.614 18.9782 8.614 18.397 8.49014ZM7.87829 12.1583C7.34473 12.1583 6.92551 11.7296 6.92551 11.2056C6.92551 10.6815 7.34473 10.2528 7.87829 10.2528C8.40232 10.2528 8.83107 10.6815 8.83107 11.2056C8.83107 11.7296 8.41184 12.1583 7.87829 12.1583ZM11.6894 12.1583C11.1558 12.1583 10.7366 11.7296 10.7366 11.2056C10.7366 10.6815 11.1558 10.2528 11.6894 10.2528C12.2134 10.2528 12.6422 10.6815 12.6422 11.2056C12.6422 11.7296 12.223 12.1583 11.6894 12.1583ZM15.5005 12.1583C14.967 12.1583 14.5477 11.7296 14.5477 11.2056C14.5477 10.6815 14.967 10.2528 15.5005 10.2528C16.0245 10.2528 16.4533 10.6815 16.4533 11.2056C16.4533 11.7296 16.0341 12.1583 15.5005 12.1583Z" fill="black"/>
</svg>
