<svg width="24" height="24" viewBox="0 0 24 24" fill="none" xmlns="http://www.w3.org/2000/svg">
<path d="M18.6606 14.5307L17.7078 12.9491C17.5078 12.5966 17.3267 11.9297 17.3267 11.539V9.1285C17.3267 6.88947 16.0119 4.95533 14.1159 4.05019C13.6204 3.17364 12.7058 2.63055 11.6577 2.63055C10.6192 2.63055 9.68545 3.19269 9.19001 4.07878C7.33209 5.00297 6.04584 6.91805 6.04584 9.1285V11.539C6.04584 11.9297 5.86481 12.5966 5.66473 12.9396L4.70242 14.5307C4.32131 15.1691 4.23556 15.8742 4.47376 16.5221C4.70242 17.1604 5.24551 17.6559 5.95056 17.8941C7.79895 18.5229 9.74262 18.8278 11.6863 18.8278C13.63 18.8278 15.5736 18.5229 17.422 17.9036C18.089 17.6844 18.6035 17.1795 18.8512 16.5221C19.0989 15.8646 19.0322 15.1405 18.6606 14.5307Z" fill="black"/>
<path d="M14.3635 19.7899C13.9634 20.8951 12.9058 21.686 11.6672 21.686C10.9145 21.686 10.1713 21.3811 9.64729 20.838C9.3424 20.5521 9.11374 20.171 8.98035 19.7804C9.10421 19.7995 9.22807 19.809 9.36146 19.828C9.5806 19.8566 9.80926 19.8852 10.0379 19.9043C10.581 19.9519 11.1336 19.9805 11.6862 19.9805C12.2293 19.9805 12.7724 19.9519 13.306 19.9043C13.506 19.8852 13.7061 19.8757 13.8967 19.8471C14.0491 19.828 14.2016 19.809 14.3635 19.7899Z" fill="black"/>
</svg>
