<svg width="24" height="24" viewBox="0 0 24 24" fill="none" xmlns="http://www.w3.org/2000/svg">
<path d="M16.2916 2.58633L8.30737 2.58633C4.83926 2.58633 2.77173 4.65386 2.77173 8.12197L2.77173 16.0967C2.77173 19.5744 4.83926 21.6419 8.30737 21.6419H16.2821C19.7502 21.6419 21.8178 19.5744 21.8178 16.1063V8.12197C21.8273 4.65386 19.7598 2.58633 16.2916 2.58633ZM9.54598 16.7827C9.54598 17.0495 9.33637 17.2591 9.06959 17.2591H6.41134C6.14456 17.2591 5.93495 17.0495 5.93495 16.7827L5.93495 12.3809C5.93495 11.7806 6.42087 11.2947 7.02112 11.2947H9.06959C9.33637 11.2947 9.54598 11.5043 9.54598 11.7711V16.7827ZM14.1003 16.7827C14.1003 17.0495 13.8906 17.2591 13.6239 17.2591H10.9656C10.6988 17.2591 10.4892 17.0495 10.4892 16.7827V8.05528C10.4892 7.45503 10.9751 6.96911 11.5754 6.96911H13.0236C13.6239 6.96911 14.1098 7.45503 14.1098 8.05528V16.7827H14.1003ZM18.6641 16.7827C18.6641 17.0495 18.4545 17.2591 18.1877 17.2591H15.5294C15.2626 17.2591 15.053 17.0495 15.053 16.7827V13.4004C15.053 13.1336 15.2626 12.924 15.5294 12.924H17.5779C18.1781 12.924 18.6641 13.4099 18.6641 14.0101V16.7827Z" fill="black"/>
</svg>
