<svg width="24" height="23" viewBox="0 0 24 23" fill="none" xmlns="http://www.w3.org/2000/svg">
<path d="M22.1704 7.96002L21.8941 5.32082C21.4939 2.44343 20.1886 1.27151 17.397 1.27151L15.1484 1.27151H13.7383L10.8419 1.27151H9.43177L7.14511 1.27151C4.34394 1.27151 3.04816 2.44343 2.63847 5.3494L2.38122 7.96954C2.28594 8.98902 2.56225 9.9799 3.1625 10.7517C3.88661 11.6949 5.00136 12.2285 6.23997 12.2285C7.44047 12.2285 8.59333 11.6282 9.31744 10.6659C9.96533 11.6282 11.0705 12.2285 12.2996 12.2285C13.5287 12.2285 14.6054 11.6568 15.2628 10.704C15.9964 11.6473 17.1302 12.2285 18.3117 12.2285C19.5789 12.2285 20.7222 11.6663 21.4368 10.6754C22.0084 9.91321 22.2657 8.9509 22.1704 7.96002Z" fill="#A4A4A5"/>
<path d="M11.6804 15.954C10.4703 16.0779 9.55566 17.1069 9.55566 18.3264V20.937C9.55566 21.1943 9.76527 21.4039 10.0225 21.4039H14.5673C14.8245 21.4039 15.0341 21.1943 15.0341 20.937V18.6599C15.0437 16.6686 13.8717 15.7253 11.6804 15.954Z" fill="#A4A4A5"/>
<path d="M21.2264 13.8006V16.6398C21.2264 19.2695 19.0922 21.4037 16.4625 21.4037C16.2053 21.4037 15.9956 21.1941 15.9956 20.9369V18.6597C15.9956 17.4402 15.6241 16.4874 14.8999 15.8395C14.2616 15.2583 13.3946 14.9725 12.3179 14.9725C12.0797 14.9725 11.8415 14.982 11.5843 15.0106C9.88834 15.1821 8.60209 16.6113 8.60209 18.3263V20.9369C8.60209 21.1941 8.39248 21.4037 8.13523 21.4037C5.50556 21.4037 3.37134 19.2695 3.37134 16.6398L3.37134 13.8196C3.37134 13.1527 4.02875 12.7049 4.64806 12.924C4.90531 13.0098 5.16256 13.0765 5.42934 13.1146C5.54367 13.1336 5.66753 13.1527 5.78187 13.1527C5.93431 13.1717 6.08675 13.1813 6.2392 13.1813C7.34442 13.1813 8.43059 12.7716 9.28809 12.0665C10.1075 12.7716 11.1746 13.1813 12.2989 13.1813C13.4327 13.1813 14.4807 12.7906 15.3001 12.0856C16.1576 12.7811 17.2247 13.1813 18.3109 13.1813C18.4824 13.1813 18.6539 13.1717 18.8159 13.1527C18.9302 13.1432 19.035 13.1336 19.1398 13.1146C19.4352 13.0765 19.7019 12.9907 19.9687 12.905C20.588 12.6953 21.2264 13.1527 21.2264 13.8006Z" fill="#A4A4A5"/>
</svg>
