<svg width="24" height="24" viewBox="0 0 24 24" fill="none" xmlns="http://www.w3.org/2000/svg">
<path d="M16.8259 4.07246V2.58612C16.8259 2.19548 16.502 1.87154 16.1113 1.87154C15.7207 1.87154 15.3967 2.19548 15.3967 2.58612V4.01529H9.20368V2.58612C9.20368 2.19548 8.87974 1.87154 8.4891 1.87154C8.09846 1.87154 7.77451 2.19548 7.77451 2.58612V4.07246C5.20201 4.31065 3.95387 5.84462 3.76332 8.12176C3.74426 8.39807 3.97293 8.62673 4.23971 8.62673H20.3607C20.637 8.62673 20.8657 8.38854 20.8371 8.12176C20.6465 5.84462 19.3984 4.31065 16.8259 4.07246Z" fill="#A4A4A5"/>
<path d="M18.9696 14.9722C16.8639 14.9722 15.1584 16.6776 15.1584 18.7833C15.1584 19.4978 15.3585 20.1743 15.7111 20.746C16.3685 21.8512 17.5785 22.5944 18.9696 22.5944C20.3606 22.5944 21.5706 21.8512 22.2281 20.746C22.5806 20.1743 22.7807 19.4978 22.7807 18.7833C22.7807 16.6776 21.0752 14.9722 18.9696 14.9722ZM20.9418 18.3736L18.9124 20.2505C18.779 20.3744 18.598 20.4411 18.4265 20.4411C18.2454 20.4411 18.0644 20.3744 17.9215 20.2315L16.9783 19.2882C16.7019 19.0119 16.7019 18.5546 16.9783 18.2783C17.2546 18.002 17.7119 18.002 17.9882 18.2783L18.4455 18.7356L19.97 17.3255C20.2558 17.0587 20.7131 17.0778 20.9799 17.3636C21.2467 17.6495 21.2276 18.0973 20.9418 18.3736Z" fill="#A4A4A5"/>
<path d="M19.9223 10.0559L4.67788 10.0559C4.15385 10.0559 3.7251 10.4847 3.7251 11.0087L3.7251 16.8778C3.7251 19.7361 5.15426 21.6417 8.48899 21.6417H13.1862C13.8436 21.6417 14.3009 21.0033 14.0913 20.384C13.9008 19.8314 13.7388 19.2216 13.7388 18.7834C13.7388 15.8965 16.0922 13.5431 18.9791 13.5431C19.2554 13.5431 19.5317 13.5621 19.7985 13.6098C20.3701 13.6955 20.8846 13.2477 20.8846 12.6761V11.0182C20.8751 10.4847 20.4463 10.0559 19.9223 10.0559ZM9.64185 18.0307C9.46082 18.2022 9.2131 18.307 8.96538 18.307C8.71765 18.307 8.46993 18.2022 8.2889 18.0307C8.1174 17.8496 8.0126 17.6019 8.0126 17.3542C8.0126 17.1065 8.1174 16.8588 8.2889 16.6777C8.38418 16.592 8.47946 16.5253 8.60332 16.4776C8.95585 16.3252 9.37507 16.411 9.64185 16.6777C9.81335 16.8588 9.91815 17.1065 9.91815 17.3542C9.91815 17.6019 9.81335 17.8496 9.64185 18.0307ZM9.64185 14.696C9.59421 14.7341 9.54657 14.7722 9.49893 14.8103C9.44176 14.8484 9.3846 14.877 9.32743 14.896C9.27026 14.9246 9.2131 14.9437 9.15593 14.9532C9.08924 14.9627 9.02254 14.9723 8.96538 14.9723C8.71765 14.9723 8.46993 14.8675 8.2889 14.696C8.1174 14.5149 8.0126 14.2672 8.0126 14.0195C8.0126 13.7718 8.1174 13.524 8.2889 13.343C8.50804 13.1239 8.84151 13.0191 9.15593 13.0858C9.2131 13.0953 9.27026 13.1143 9.32743 13.1429C9.3846 13.162 9.44176 13.1906 9.49893 13.2287C9.54657 13.2668 9.59421 13.3049 9.64185 13.343C9.81335 13.524 9.91815 13.7718 9.91815 14.0195C9.91815 14.2672 9.81335 14.5149 9.64185 14.696ZM12.9766 14.696C12.7955 14.8675 12.5478 14.9723 12.3001 14.9723C12.0524 14.9723 11.8047 14.8675 11.6236 14.696C11.4521 14.5149 11.3473 14.2672 11.3473 14.0195C11.3473 13.7718 11.4521 13.524 11.6236 13.343C11.9857 12.9905 12.624 12.9905 12.9766 13.343C13.1481 13.524 13.2529 13.7718 13.2529 14.0195C13.2529 14.2672 13.1481 14.5149 12.9766 14.696Z" fill="#A4A4A5"/>
</svg>
