<svg width="24" height="24" viewBox="0 0 24 24" fill="none" xmlns="http://www.w3.org/2000/svg">
<path d="M20.6108 21.6859C20.4393 21.6859 20.2678 21.6193 20.1439 21.4954L18.3718 19.7232C18.1145 19.466 18.1145 19.0468 18.3718 18.78C18.629 18.5227 19.0482 18.5227 19.315 18.78L21.0872 20.5521C21.3444 20.8094 21.3444 21.2286 21.0872 21.4954C20.9538 21.6193 20.7823 21.6859 20.6108 21.6859Z" fill="black"/>
<path d="M2.93712 11.6819C2.93712 7.08398 6.67602 3.34508 11.2739 3.34508C15.8718 3.34508 19.6107 7.08398 19.6107 11.6819C19.6107 16.2798 15.8718 20.0187 11.2739 20.0187C6.67602 20.0187 2.93712 16.2798 2.93712 11.6819Z" stroke="black" stroke-width="1.42917"/>
</svg>
