<svg width="24" height="24" viewBox="0 0 24 24" fill="none" xmlns="http://www.w3.org/2000/svg">
<path d="M20.0165 9.26477C18.292 9.26477 17.5869 8.04522 18.4444 6.54936C18.9399 5.68233 18.6445 4.57711 17.7775 4.08166L16.1292 3.13841C15.3765 2.69061 14.4047 2.95738 13.9569 3.71008L13.852 3.89111C12.9945 5.38697 11.5844 5.38697 10.7174 3.89111L10.6126 3.71008C10.1839 2.95738 9.21202 2.69061 8.45932 3.13841L6.81102 4.08166C5.94399 4.57711 5.64863 5.69186 6.14407 6.55888C7.0111 8.04522 6.30605 9.26477 4.58152 9.26477C3.59063 9.26477 2.77124 10.0746 2.77124 11.075V12.7519C2.77124 13.7428 3.5811 14.5622 4.58152 14.5622C6.30605 14.5622 7.0111 15.7818 6.14407 17.2776C5.64863 18.1447 5.94399 19.2499 6.81102 19.7453L8.45932 20.6886C9.21202 21.1364 10.1839 20.8696 10.6317 20.1169L10.7365 19.9359C11.594 18.44 13.0041 18.44 13.8711 19.9359L13.9759 20.1169C14.4237 20.8696 15.3955 21.1364 16.1482 20.6886L17.7965 19.7453C18.6636 19.2499 18.9589 18.1351 18.4635 17.2776C17.5965 15.7818 18.3015 14.5622 20.026 14.5622C21.0169 14.5622 21.8363 13.7524 21.8363 12.7519V11.075C21.8268 10.0842 21.0169 9.26477 20.0165 9.26477ZM12.299 15.01C10.5935 15.01 9.20249 13.619 9.20249 11.9135C9.20249 10.208 10.5935 8.81697 12.299 8.81697C14.0045 8.81697 15.3955 10.208 15.3955 11.9135C15.3955 13.619 14.0045 15.01 12.299 15.01Z" fill="#A4A4A5"/>
</svg>
