<svg width="24" height="24" viewBox="0 0 24 24" fill="none" xmlns="http://www.w3.org/2000/svg">
<path d="M21.8268 21.8418H2.77122C2.38059 21.8418 2.05664 21.5178 2.05664 21.1272C2.05664 20.7366 2.38059 20.4126 2.77122 20.4126H21.8268C22.2174 20.4126 22.5414 20.7366 22.5414 21.1272C22.5414 21.5178 22.2174 21.8418 21.8268 21.8418Z" fill="#A4A4A5"/>
<path d="M10.1555 4.69175L10.1555 21.8418H14.443V4.69175C14.443 3.64369 14.0143 2.78619 12.728 2.78619H11.8705C10.5843 2.78619 10.1555 3.64369 10.1555 4.69175Z" fill="#A4A4A5"/>
<path d="M3.72412 10.4086L3.72412 21.8419H7.53523L7.53523 10.4086C7.53523 9.36055 7.15412 8.50305 6.01079 8.50305H5.24857C4.10523 8.50305 3.72412 9.36055 3.72412 10.4086Z" fill="#A4A4A5"/>
<path d="M17.0632 15.1726V21.842H20.8743V15.1726C20.8743 14.1245 20.4932 13.267 19.3499 13.267H18.5877C17.4443 13.267 17.0632 14.1245 17.0632 15.1726Z" fill="#A4A4A5"/>
</svg>
