<svg width="24" height="24" viewBox="0 0 24 24" fill="none" xmlns="http://www.w3.org/2000/svg">
<path d="M21.8279 14.7724C21.8279 18.4596 18.8457 21.4418 15.1584 21.4418L16.1589 19.7745" stroke="#A4A4A5" stroke-width="1.42917" stroke-linecap="round" stroke-linejoin="round"/>
<path d="M2.77197 9.05571C2.77197 5.36846 5.75417 2.38626 9.44142 2.38626L8.441 4.05362" stroke="#A4A4A5" stroke-width="1.42917" stroke-linecap="round" stroke-linejoin="round"/>
<path d="M21.8273 4.48237V4.58718C21.8273 4.85396 21.6177 5.06357 21.351 5.06357H12.7759C12.5092 5.06357 12.2996 4.85396 12.2996 4.58718V4.48237C12.2996 2.80548 12.7188 2.38626 14.4147 2.38626L19.7122 2.38626C21.4081 2.38626 21.8273 2.80548 21.8273 4.48237Z" fill="#A4A4A5"/>
<path d="M12.7759 6.01637C12.5092 6.01637 12.2996 6.22598 12.2996 6.49276V7.44554V8.38879C12.2996 10.0657 12.7188 10.4849 14.4147 10.4849H19.7122C21.4081 10.4849 21.8273 10.0657 21.8273 8.38879V7.44554V6.49276C21.8273 6.22598 21.6177 6.01637 21.351 6.01637L12.7759 6.01637Z" fill="#A4A4A5"/>
<path d="M12.2998 15.4393V15.5441C12.2998 15.8109 12.0901 16.0205 11.8234 16.0205H3.24836C2.98158 16.0205 2.77197 15.8109 2.77197 15.5441V15.4393C2.77197 13.7624 3.19119 13.3432 4.88714 13.3432H10.1846C11.8805 13.3432 12.2998 13.7624 12.2998 15.4393Z" fill="#A4A4A5"/>
<path d="M3.24836 16.973C2.98158 16.973 2.77197 17.1826 2.77197 17.4494V18.4022V19.3455C2.77197 21.0223 3.19119 21.4416 4.88714 21.4416H10.1846C11.8805 21.4416 12.2998 21.0223 12.2998 19.3455V18.4022V17.4494C12.2998 17.1826 12.0901 16.973 11.8234 16.973H3.24836Z" fill="#A4A4A5"/>
</svg>
