<svg width="19" height="14" viewBox="0 0 19 14" fill="none" xmlns="http://www.w3.org/2000/svg">
<path d="M16.103 2.36185L11.3206 8.20727L7.66637 4.55162L7.66632 4.55157C7.5835 4.46884 7.48374 4.40504 7.37389 4.36458C7.26405 4.32412 7.14674 4.30795 7.03004 4.31718C6.91335 4.32642 6.80004 4.36085 6.69793 4.41809C6.59582 4.47533 6.50734 4.55402 6.43857 4.64875L0.721951 12.5091L0.721898 12.5091L0.719929 12.512C0.603032 12.6859 0.558101 12.8984 0.59458 13.1047C0.631058 13.3111 0.746106 13.4953 0.915546 13.6186C1.08499 13.7419 1.29563 13.7947 1.5032 13.766C1.71078 13.7372 1.89912 13.6291 2.02867 13.4644L2.02872 13.4644L2.03083 13.4615L7.19028 6.36729L10.8087 9.9857L10.8088 9.98576C10.8888 10.0656 10.9846 10.1278 11.0901 10.1684C11.1956 10.209 11.3084 10.2271 11.4213 10.2214C11.5342 10.2158 11.6447 10.1866 11.7456 10.1357C11.8466 10.0847 11.9357 10.0133 12.0073 9.92583L12.0074 9.92577L17.0019 3.81978V7.26865C17.0019 7.48344 17.0873 7.68943 17.2391 7.84131C17.391 7.99319 17.597 8.07851 17.8118 8.07851C18.0266 8.07851 18.2326 7.99319 18.3845 7.84131C18.5363 7.68943 18.6217 7.48344 18.6217 7.26865V1.55199C18.6217 1.3372 18.5363 1.13121 18.3845 0.979328C18.2326 0.827449 18.0266 0.742125 17.8118 0.742125L12.0951 0.742125C11.8804 0.742125 11.6744 0.827449 11.5225 0.979328C11.3706 1.13121 11.2853 1.3372 11.2853 1.55199C11.2853 1.76677 11.3706 1.97277 11.5225 2.12464C11.6744 2.27652 11.8804 2.36185 12.0951 2.36185H16.103Z" fill="black" stroke="black" stroke-width="0.190556"/>
</svg>
